<?xml version="1.0" encoding="UTF-8"?>
<svg version="1.1" xmlns="http://www.w3.org/2000/svg" width="634" height="633">
<path d="M0 0 C1.91151222 -0.00408055 3.82302207 -0.00943063 5.73452759 -0.01593018 C10.8564249 -0.02943255 15.9781379 -0.02437718 21.10003781 -0.01479292 C26.50248223 -0.00710761 31.90491264 -0.01426611 37.30735779 -0.01895142 C46.37241399 -0.024383 55.43739645 -0.01728556 64.50244141 -0.00292969 C74.93113727 0.01339668 85.35965711 0.0080978 95.78834873 -0.0084089 C104.79964104 -0.02209239 113.81088086 -0.02391026 122.82218021 -0.0160929 C128.17916202 -0.0114545 133.53606152 -0.01068447 138.8930378 -0.02070236 C143.93220369 -0.0294707 148.97114609 -0.02317325 154.01028824 -0.00601959 C155.84182937 -0.00210697 157.67338985 -0.00309699 159.50492287 -0.00980759 C176.39922742 -0.06592421 192.78528316 1.96033142 209.16186523 6.20068359 C210.673573 6.5853479 210.673573 6.5853479 212.21582031 6.9777832 C219.24274315 8.82472175 225.89357215 11.09509489 232.56030273 13.97021484 C235.72551241 15.33478861 238.91334159 16.48951208 242.16186523 17.63818359 C250.19262442 20.68467806 257.53482028 25.02889985 264.94921875 29.32250977 C266.88725566 30.40943397 268.85454157 31.41002468 270.84936523 32.38818359 C270.84936523 33.04818359 270.84936523 33.70818359 270.84936523 34.38818359 C271.40366211 34.47970703 271.95795898 34.57123047 272.52905273 34.66552734 C283.7421559 38.15782378 294.97475169 50.47366604 303.52905273 58.29052734 C305.5363365 60.10519297 307.57919246 61.84913885 309.66186523 63.57568359 C312.8092847 66.25322764 315.36804489 69.07975647 317.84936523 72.38818359 C317.84936523 73.04818359 317.84936523 73.70818359 317.84936523 74.38818359 C318.83936523 74.71818359 319.82936523 75.04818359 320.84936523 75.38818359 C322.47286604 77.22914415 323.94866028 79.05111336 325.41186523 81.01318359 C325.84877686 81.59221436 326.28568848 82.17124512 326.73583984 82.76782227 C338.7086157 98.81370003 349.00944869 115.94666495 356.84936523 134.38818359 C357.13521484 135.05527344 357.42106445 135.72236328 357.71557617 136.40966797 C362.0485449 146.73730136 365.03741227 157.32174715 367.66186523 168.20068359 C367.9519043 169.37252197 368.24194336 170.54436035 368.54077148 171.75170898 C373.92942911 195.13486098 373.15099573 219.20024376 373.11801624 243.03966331 C373.11287897 247.92866601 373.11766879 252.81766197 373.12078857 257.70666504 C373.12440607 265.90992604 373.11968786 274.11315078 373.11010742 282.31640625 C373.0992272 291.7401948 373.10275436 301.16389674 373.11376023 310.5876832 C373.12289684 318.7438246 373.12408752 326.89994024 373.11888289 335.05608511 C373.11579793 339.89890044 373.11525632 344.74167534 373.12195587 349.58448792 C373.18114609 399.23631117 373.18114609 399.23631117 367.41186523 422.32568359 C366.96230469 424.23510742 366.96230469 424.23510742 366.50366211 426.18310547 C365.05283866 432.19725645 363.49689343 437.79727163 360.84936523 443.38818359 C360.3677468 444.75520156 359.90572119 446.12948331 359.47436523 447.51318359 C358.19663419 451.42707553 356.80172021 455.28552939 355.34936523 459.13818359 C354.94717773 460.20552734 354.54499023 461.27287109 354.13061523 462.37255859 C352.90993066 465.24563326 351.49988892 467.7447999 349.84936523 470.38818359 C348.9035877 472.11283674 347.96634434 473.84219226 347.03686523 475.57568359 C339.18390813 489.97597168 330.12311461 503.06343317 319.39233398 515.45068359 C318.06809711 516.98037042 316.7480379 518.51492433 315.48461914 520.09521484 C314.31318913 521.5593952 313.08532798 522.97805293 311.84936523 524.38818359 C311.18936523 524.38818359 310.52936523 524.38818359 309.84936523 524.38818359 C309.51936523 525.37818359 309.18936523 526.36818359 308.84936523 527.38818359 C308.18936523 527.38818359 307.52936523 527.38818359 306.84936523 527.38818359 C306.50711914 528.24863281 306.50711914 528.24863281 306.15795898 529.12646484 C304.49536927 532.00001543 302.51835121 533.52265519 299.91186523 535.57568359 C296.09191927 538.6078586 292.32341405 541.67671278 288.59936523 544.82568359 C241.73763153 582.90909253 186.40573156 590.74008248 128.1390686 590.6568346 C123.39601429 590.65168978 118.65296682 590.65648916 113.90991211 590.65960693 C105.95221545 590.66322231 97.99455619 590.6585119 90.03686523 590.64892578 C80.90106966 590.63804598 71.76536343 590.64157329 62.62957001 590.65257859 C54.71627806 590.66172136 46.80301264 590.66290294 38.8897171 590.65770125 C34.19387859 590.6546196 29.49808175 590.65406511 24.80224609 590.66077423 C-24.0713255 590.72110298 -24.0713255 590.72110298 -44.27563477 586.20068359 C-45.25226074 585.99000244 -46.22888672 585.77932129 -47.23510742 585.56225586 C-63.53721109 581.88737486 -79.77881696 576.29803846 -94.71313477 568.76318359 C-95.38368896 568.42544922 -96.05424316 568.08771484 -96.74511719 567.73974609 C-112.22301245 559.82607405 -126.25810838 550.5736234 -139.64282227 539.46630859 C-141.38712324 538.02087538 -143.1664855 536.61715007 -144.97094727 535.24755859 C-145.69024414 534.63396484 -146.40954102 534.02037109 -147.15063477 533.38818359 C-147.15063477 532.72818359 -147.15063477 532.06818359 -147.15063477 531.38818359 C-147.73329102 531.13037109 -148.31594727 530.87255859 -148.91625977 530.60693359 C-151.33092507 529.28984343 -152.96803654 527.83729975 -154.90063477 525.88818359 C-155.51422852 525.27974609 -156.12782227 524.67130859 -156.76000977 524.04443359 C-158.15063477 522.38818359 -158.15063477 522.38818359 -158.15063477 520.38818359 C-159.14063477 520.05818359 -160.13063477 519.72818359 -161.15063477 519.38818359 C-164.36669266 515.90258942 -167.22967952 512.12276133 -170.15063477 508.38818359 C-170.66883789 507.73462891 -171.18704102 507.08107422 -171.72094727 506.40771484 C-187.11161591 486.48779229 -200.16713569 463.66270442 -207.15063477 439.38818359 C-207.34608887 438.72109375 -207.54154297 438.05400391 -207.74291992 437.36669922 C-216.47449184 407.45628054 -217.46093866 378.87710187 -217.41928577 347.96451831 C-217.41415574 342.95445725 -217.41893631 337.94440284 -217.42205811 332.93434143 C-217.4256773 324.52839828 -217.42095247 316.12249049 -217.41137695 307.71655273 C-217.40049284 298.05133018 -217.40402601 288.38619204 -217.41502976 278.72097152 C-217.42415716 270.36360951 -217.42536157 262.00627264 -217.42015243 253.64890724 C-217.41706295 248.68318016 -217.41653889 243.71749253 -217.4232254 238.75176811 C-217.42907848 234.08035276 -217.42485938 229.40904439 -217.41343689 224.73764038 C-217.4108324 223.04155211 -217.41148136 221.34545455 -217.41596222 219.64937019 C-217.45492798 203.37775406 -216.4519938 187.14465294 -212.71313477 171.26318359 C-212.50881836 170.34021484 -212.30450195 169.41724609 -212.09399414 168.46630859 C-207.89421482 149.88784556 -201.20707883 132.12861832 -192.15063477 115.38818359 C-191.82450195 114.78135742 -191.49836914 114.17453125 -191.16235352 113.54931641 C-184.68003578 101.58543717 -177.05749562 90.59508991 -168.52563477 80.01318359 C-167.99945557 79.35914551 -167.47327637 78.70510742 -166.93115234 78.03125 C-163.25448412 73.54192887 -159.31062651 69.42986304 -155.15063477 65.38818359 C-154.34625977 64.58380859 -153.54188477 63.77943359 -152.71313477 62.95068359 C-151.86750977 62.10505859 -151.02188477 61.25943359 -150.15063477 60.38818359 C-149.34432617 59.52966797 -149.34432617 59.52966797 -148.52172852 58.65380859 C-142.61539303 52.48853147 -135.99098953 47.44693599 -129.15063477 42.38818359 C-128.59069824 41.96746582 -128.03076172 41.54674805 -127.45385742 41.11328125 C-105.37103388 24.543188 -79.87941332 12.8946722 -53.15063477 6.07568359 C-51.82068481 5.73053711 -51.82068481 5.73053711 -50.46386719 5.37841797 C-33.79882278 1.34342719 -17.09360799 -0.06270628 0 0 Z " fill="#C5A040" transform="translate(239.150634765625,15.61181640625)"/>
<path d="M0 0 C1.78872515 0.98452992 3.57997826 1.96449756 5.375 2.9375 C6.58515531 3.62178782 7.79432302 4.3078521 9 5 C9 5.66 9 6.32 9 7 C9.72574219 7.11214844 10.45148438 7.22429687 11.19921875 7.33984375 C14.12563993 8.02961387 16.22287809 9.05510814 18.8125 10.5625 C19.60269531 11.01753906 20.39289063 11.47257812 21.20703125 11.94140625 C22.09455078 12.46541016 22.09455078 12.46541016 23 13 C23 13.66 23 14.32 23 15 C23.96873047 15.09474609 23.96873047 15.09474609 24.95703125 15.19140625 C29.32262487 16.35145488 32.84210986 18.61200113 36.6875 20.9375 C37.45900391 21.39318359 38.23050781 21.84886719 39.02539062 22.31835938 C44.70818114 25.70818114 44.70818114 25.70818114 47 28 C49.06874034 28.6425235 49.06874034 28.6425235 51 29 C51 29.66 51 30.32 51 31 C51.76699219 31.19980469 52.53398437 31.39960938 53.32421875 31.60546875 C58.52109112 33.57707708 63.0687109 36.43815301 67.8125 39.3125 C69.71415918 40.45556675 71.61649558 41.59750763 73.51953125 42.73828125 C74.44636719 43.29394775 75.37320312 43.84961426 76.328125 44.42211914 C79.4554257 46.26895251 82.62187066 48.03320818 85.80444336 49.7824707 C89.69600435 51.94050636 93.53086935 54.1964352 97.375 56.4375 C108.5571939 62.95600734 108.5571939 62.95600734 120 69 C120 69.66 120 70.32 120 71 C122.31 71.66 124.62 72.32 127 73 C127 73.66 127 74.32 127 75 C128.65 75.33 130.3 75.66 132 76 C132 76.66 132 77.32 132 78 C132.8353125 78.0928125 132.8353125 78.0928125 133.6875 78.1875 C137.07039021 79.37608305 138.70335595 81.28028994 141 84 C142.98544298 88.68820255 143.28660114 93.01798536 143.26069641 98.03941345 C143.26452196 98.8318102 143.26834751 99.62420694 143.27228898 100.44061571 C143.28257948 103.08669933 143.27863437 105.73256436 143.2746582 108.37866211 C143.27900684 110.27949728 143.2841905 112.18033069 143.29014587 114.0811615 C143.30353024 119.23815631 143.3041152 124.3950778 143.30158257 129.55208659 C143.30051256 133.8588077 143.30539699 138.16551399 143.310188 142.47223192 C143.32128108 152.63278504 143.32172159 162.79330118 143.31567383 172.95385742 C143.3096323 183.43304656 143.32195009 193.91210148 143.3432439 204.39126772 C143.36086019 213.39185693 143.36686124 222.39240343 143.36360615 231.39300925 C143.36179332 236.767134 143.36442964 242.141163 143.37832069 247.51527214 C143.39089494 252.56896108 143.38895868 257.62244076 143.37590981 262.67612648 C143.37354367 264.52924546 143.37628005 266.38237915 143.38453293 268.23548126 C143.39499888 270.76843095 143.38690117 273.30067826 143.3742218 275.83360291 C143.38159609 276.56396427 143.38897037 277.29432563 143.39656812 278.04681915 C143.32222244 285.12404282 141.02930118 290.93771979 136 296 C133.06587908 297.99238007 129.987978 299.67982541 126.875 301.375 C124.98254289 302.43003941 123.0906417 303.48607646 121.19921875 304.54296875 C120.19552246 305.10032715 119.19182617 305.65768555 118.15771484 306.23193359 C112.63375845 309.324905 107.16432557 312.51207255 101.6875 315.6875 C94.08898427 320.08214751 86.47220262 324.43601086 78.80078125 328.7019043 C72.29466703 332.34688557 65.92411834 336.21936475 59.55908203 340.10424805 C58.74938965 340.59578369 57.93969727 341.08731934 57.10546875 341.59375 C56.38512451 342.03396484 55.66478027 342.47417969 54.92260742 342.92773438 C50.39564599 345.45248543 46.04421505 345.45935292 41 345 C35.55810201 343.186034 32.2216675 339.61737362 29 335 C27.72632615 331.17897844 27.82290927 327.56468671 27.79467773 323.58129883 C27.78477814 322.72254654 27.77487854 321.86379425 27.76467896 320.97901917 C27.73307234 318.13838465 27.70830979 315.2977334 27.68359375 312.45703125 C27.6630235 310.48833276 27.64202701 308.51963868 27.62062073 306.5509491 C27.56540738 301.36751882 27.51599482 296.18404873 27.46777344 291.00054932 C27.41755306 285.71191868 27.36186979 280.42334591 27.30664062 275.13476562 C27.19906805 264.75655984 27.09762104 254.37830383 27 244 C25.79525024 243.40401505 25.79525024 243.40401505 24.56616211 242.79598999 C23.50147705 242.26696075 22.43679199 241.73793152 21.33984375 241.19287109 C20.28917725 240.67179779 19.23851074 240.15072449 18.15600586 239.61386108 C13.32251675 237.14219901 8.66647176 234.3956799 4 231.625 C-2.79709615 227.6201216 -9.60480486 223.63822628 -16.46484375 219.7421875 C-17.08871979 219.38758453 -17.71259583 219.03298157 -18.3553772 218.66763306 C-20.81041194 217.27300125 -23.26577554 215.87900913 -25.72485352 214.49151611 C-32.67135698 210.57166181 -39.42287371 206.51178401 -46 202 C-48.43854321 200.44819978 -50.63652747 199.14026625 -53.328125 198.1015625 C-56.06299436 196.97402864 -58.4620453 195.64324076 -61 194.125 C-65.68794606 191.35225142 -70.39643285 188.62267574 -75.13012695 185.92871094 C-78.75554498 183.86515178 -82.37570586 181.79245916 -85.99560547 179.71923828 C-88.09511562 178.51781211 -90.19579765 177.31843252 -92.29736328 176.12060547 C-95.64009133 174.21287965 -98.97680326 172.29498809 -102.3125 170.375 C-103.37500977 169.77099365 -104.43751953 169.1669873 -105.53222656 168.54467773 C-106.50772461 167.98079346 -107.48322266 167.41690918 -108.48828125 166.8359375 C-109.36009033 166.33626465 -110.23189941 165.8365918 -111.13012695 165.32177734 C-111.74718506 164.88559082 -112.36424316 164.4494043 -113 164 C-113 163.34 -113 162.68 -113 162 C-113.54527344 161.85304688 -114.09054688 161.70609375 -114.65234375 161.5546875 C-122.33456143 159.26972019 -129.87988304 155.34894503 -135 149 C-137.04703803 144.88450393 -137.2432758 141.48213637 -137.22705078 136.91479492 C-137.22734283 136.22156128 -137.22763489 135.52832764 -137.22793579 134.81408691 C-137.22654897 132.53608426 -137.21101867 130.25841385 -137.1953125 127.98046875 C-137.19158006 126.3957792 -137.18873418 124.81108734 -137.18673706 123.22639465 C-137.17911877 119.06545587 -137.15948588 114.90465779 -137.1373291 110.74377441 C-137.11683172 106.49391584 -137.10772703 102.24403443 -137.09765625 97.99414062 C-137.0762382 89.66269601 -137.04212416 81.33136553 -137 73 C-142.31008525 75.6188956 -147.58955065 78.23721505 -152.69921875 81.234375 C-153.6742334 81.80462402 -154.64924805 82.37487305 -155.65380859 82.96240234 C-156.65492676 83.55230957 -157.65604492 84.1422168 -158.6875 84.75 C-159.73244629 85.36182129 -160.77739258 85.97364258 -161.85400391 86.60400391 C-166.52802248 89.34583526 -171.19076272 92.10417206 -175.82421875 94.9140625 C-176.5200708 95.3359082 -177.21592285 95.75775391 -177.93286133 96.19238281 C-179.19456599 96.96066658 -180.45368328 97.73322151 -181.7097168 98.51074219 C-185.7838661 101 -185.7838661 101 -188 101 C-187.93952799 123.37428546 -187.86207256 145.74845438 -187.76428509 168.12260914 C-187.7192806 178.51084696 -187.67987675 188.89905014 -187.65356445 199.28735352 C-187.63062198 208.33965633 -187.59726619 217.39184995 -187.55129844 226.44406623 C-187.52731547 231.23909779 -187.50862002 236.03402087 -187.50238609 240.8291111 C-187.4963581 245.33941042 -187.47644163 249.84943198 -187.44572449 254.35962868 C-187.43690744 256.01767044 -187.43322922 257.67574845 -187.43499184 259.33381271 C-187.43663543 261.59268328 -187.42002521 263.85069779 -187.39872742 266.10945129 C-187.39411845 267.37507306 -187.38950949 268.64069483 -187.38476086 269.94466877 C-187.25826798 272.96899972 -187.25826798 272.96899972 -185.6257143 274.8483839 C-183.49769781 276.35581854 -181.29727611 277.45385703 -178.9375 278.5625 C-176.12862483 279.88650724 -174.20354957 280.79645043 -172 283 C-169.93125966 283.6425235 -169.93125966 283.6425235 -168 284 C-168 284.66 -168 285.32 -168 286 C-165.69 286.66 -163.38 287.32 -161 288 C-161 288.66 -161 289.32 -161 290 C-159.700625 290.37125 -159.700625 290.37125 -158.375 290.75 C-154.79482713 292.07598995 -152.15813961 293.87308965 -149 296 C-147.74051185 296.56754713 -146.46924553 297.10968598 -145.1875 297.625 C-142 299 -142 299 -141 301 C-139.30982619 301.74010071 -137.61692589 302.47491529 -135.90771484 303.16992188 C-133.03124715 304.42152031 -130.45888292 306.07295125 -127.8125 307.75 C-126.68044725 308.46084679 -125.54761615 309.17045533 -124.4140625 309.87890625 C-123.84719727 310.23355957 -123.28033203 310.58821289 -122.69628906 310.95361328 C-119.08628859 313.18050765 -115.39877139 315.27650149 -111.7265625 317.3984375 C-109.30326698 318.82186324 -106.92880483 320.2970014 -104.5625 321.8125 C-102.45350219 323.15458951 -100.65457893 324.13656182 -98.3125 325.0625 C-96 326 -96 326 -93.78125 327.84375 C-90.72307207 330.21469694 -87.6769314 331.77165237 -84.1875 333.4375 C-79.57701149 335.67865978 -75.11042979 337.99494539 -70.8203125 340.80859375 C-69.48046428 341.68553304 -68.11719092 342.52693622 -66.7421875 343.34765625 C-65.63230469 344.01087891 -65.63230469 344.01087891 -64.5 344.6875 C-63.8296875 345.08324219 -63.159375 345.47898437 -62.46875 345.88671875 C-61.74171875 346.43779297 -61.74171875 346.43779297 -61 347 C-61 347.66 -61 348.32 -61 349 C-59.02 349.33 -57.04 349.66 -55 350 C-55.33 330.86 -55.66 311.72 -56 292 C-65.04950129 287.06307825 -65.04950129 287.06307825 -74.125 282.17578125 C-76 281 -76 281 -77.4765625 279.48046875 C-79.30623836 277.70239913 -81.02042919 276.96432934 -83.375 276 C-92.43245342 272.13509317 -92.43245342 272.13509317 -94 269 C-96.02463255 268.34786708 -96.02463255 268.34786708 -98 268 C-98 267.34 -98 266.68 -98 266 C-98.70793701 265.89582764 -99.41587402 265.79165527 -100.14526367 265.68432617 C-103.37268068 264.91066245 -105.78099843 263.67111929 -108.67578125 262.05078125 C-109.75150391 261.44943359 -110.82722656 260.84808594 -111.93554688 260.22851562 C-113.04994141 259.59623047 -114.16433594 258.96394531 -115.3125 258.3125 C-116.41529297 257.69955078 -117.51808594 257.08660156 -118.65429688 256.45507812 C-134.19671372 247.70492942 -134.19671372 247.70492942 -138 242 C-138.46870733 237.70246586 -138.37034698 233.38282605 -138.375 229.0625 C-138.39949219 227.86947266 -138.42398438 226.67644531 -138.44921875 225.44726562 C-138.45308594 224.30064453 -138.45695312 223.15402344 -138.4609375 221.97265625 C-138.46915527 220.92343994 -138.47737305 219.87422363 -138.48583984 218.79321289 C-137.88129857 215.31755623 -136.75105424 214.13921469 -134 212 C-131.7109375 211.72265625 -131.7109375 211.72265625 -129.375 212.0625 C-128.59898437 212.15660156 -127.82296875 212.25070312 -127.0234375 212.34765625 C-125 213 -125 213 -123 216 C-120.97443739 217.12669331 -118.90263613 218.01513079 -116.77734375 218.9375 C-115 220 -115 220 -114 223 C-113.34 223.0825 -112.68 223.165 -112 223.25 C-100.06741361 226.2331466 -88.30792236 235.22874224 -77.75 241.40625 C-74.59878563 243.23252196 -71.42319144 245.00922625 -68.23046875 246.76171875 C-65.80621339 248.10758381 -63.40205785 249.48720821 -60.99584961 250.86499023 C-57.24171976 252.99990762 -53.46357804 255.09173053 -49.6875 257.1875 C-48.87732422 257.63802734 -48.06714844 258.08855469 -47.23242188 258.55273438 C-46.45833984 258.98263672 -45.68425781 259.41253906 -44.88671875 259.85546875 C-43.83810669 260.43784302 -43.83810669 260.43784302 -42.76831055 261.03198242 C-41.52528599 261.71244526 -40.26748246 262.36625877 -39 263 C-39 263.66 -39 264.32 -39 265 C-38.29875 265.2475 -37.5975 265.495 -36.875 265.75 C-30.40294843 268.56393547 -25.19986353 272.60027295 -22 279 C-21.8976015 281.26529369 -21.86155163 283.53367289 -21.85473633 285.80126953 C-21.85137772 286.50072189 -21.8480191 287.20017426 -21.84455872 287.92082214 C-21.83503361 290.24150352 -21.83310434 292.56211277 -21.83203125 294.8828125 C-21.82881799 296.49746734 -21.82545386 298.11212189 -21.82194519 299.72677612 C-21.81594879 303.11798781 -21.81410564 306.50917401 -21.81469727 309.90039062 C-21.81479852 314.23116821 -21.80118722 318.56178047 -21.78392506 322.892519 C-21.77276212 326.23154438 -21.77077943 329.57053047 -21.77130699 332.9095726 C-21.77013177 334.50505006 -21.76573584 336.10052869 -21.75797462 337.6959877 C-21.74809489 339.93822735 -21.75108464 342.18011709 -21.75708008 344.42236328 C-21.75565506 345.69540314 -21.75423004 346.96844299 -21.75276184 348.28005981 C-22.44861399 358.74983674 -26.47547082 367.68824671 -34 375 C-38.25806452 378 -38.25806452 378 -41 378 C-41 378.66 -41 379.32 -41 380 C-46.82596176 383.88397451 -54.18798796 383.5409539 -61 383 C-63.65043288 382.1325856 -65.59608092 381.29782134 -68 380 C-68.84691406 379.5978125 -69.69382812 379.195625 -70.56640625 378.78125 C-77.96536171 375.2344804 -84.95334249 371.13018904 -91.9453125 366.85546875 C-93.59926127 365.85083235 -95.26914106 364.86542947 -97 364 C-97 363.34 -97 362.68 -97 362 C-97.680625 361.731875 -98.36125 361.46375 -99.0625 361.1875 C-102.39710809 359.83946694 -105.69743237 358.42463702 -109 357 C-109 356.34 -109 355.68 -109 355 C-110.051875 354.7525 -111.10375 354.505 -112.1875 354.25 C-115.85666303 353.21322247 -118.05350591 351.43085762 -121 349 C-123.2958874 347.85927607 -125.60934424 346.93751206 -128 346 C-128 345.34 -128 344.68 -128 344 C-128.93972656 343.78859375 -129.87945312 343.5771875 -130.84765625 343.359375 C-136.14151471 341.83737412 -140.70110247 339.00124815 -145.4375 336.25 C-146.43088379 335.68015381 -147.42426758 335.11030762 -148.44775391 334.52319336 C-151.63653809 332.6901542 -154.81841493 330.84550145 -158 329 C-160.17568836 327.74593258 -162.35146931 326.49202578 -164.52734375 325.23828125 C-166.64372525 324.01387791 -168.75962511 322.78864161 -170.875 321.5625 C-172.3434436 320.71316895 -172.3434436 320.71316895 -173.84155273 319.84667969 C-179.05948537 316.80344672 -184.15598864 313.64623164 -189.15380859 310.25268555 C-192.08296796 308.26518003 -194.90810931 306.40921998 -198.23046875 305.1640625 C-201.55249111 303.7677823 -204.49221198 302.01057665 -207.5625 300.125 C-208.67753906 299.44695312 -209.79257813 298.76890625 -210.94140625 298.0703125 C-216.60748805 294.23503363 -218.42534772 291.71659318 -220 285 C-220.18120747 282.2340064 -220.2749428 279.57176271 -220.26069641 276.80909729 C-220.26452196 276.01246813 -220.26834751 275.21583897 -220.27228898 274.39506954 C-220.28256168 271.7406064 -220.27863779 269.08636189 -220.2746582 266.43188477 C-220.27900783 264.52267254 -220.28419181 262.61346205 -220.29014587 260.70425415 C-220.30351954 255.52865702 -220.3041164 250.35313298 -220.30158257 245.17752194 C-220.30051185 240.85344765 -220.30539878 236.52938809 -220.310188 232.20531696 C-220.32127734 222.00299629 -220.32172367 211.80071245 -220.31567383 201.59838867 C-220.30963241 191.0800042 -220.32195067 180.56175343 -220.3432439 170.04339176 C-220.36086625 161.0053998 -220.36686029 151.96745038 -220.36360615 142.92944187 C-220.36179432 137.53462044 -220.36441969 132.13989442 -220.37832069 126.74508858 C-220.39090483 121.67168497 -220.3889493 116.59848971 -220.37590981 111.52508926 C-220.37354584 109.66593925 -220.37627225 107.80677454 -220.38453293 105.94764137 C-220.39501731 103.40414918 -220.38688644 100.86135393 -220.3742218 98.31788635 C-220.38159609 97.587229 -220.38897037 96.85657166 -220.39656812 96.10377318 C-220.33571389 90.269827 -219.18349684 84.70234758 -215.421875 80.046875 C-214.87015625 79.61890625 -214.3184375 79.1909375 -213.75 78.75 C-213.13898438 78.275625 -212.52796875 77.80125 -211.8984375 77.3125 C-207.50459321 74.27478049 -203.0058436 71.89410298 -198 70 C-196.948125 69.443125 -196.948125 69.443125 -195.875 68.875 C-194 68 -194 68 -191 68 C-191 67.34 -191 66.68 -191 66 C-190.34 66 -189.68 66 -189 66 C-188.505 64.515 -188.505 64.515 -188 63 C-186.00882592 62.30741771 -184.0078864 61.64252365 -182 61 C-180.97803008 60.02246356 -179.98020375 59.0194119 -179 58 C-175.41915416 55.64787577 -172.15042913 54.03760728 -168 53 C-166.97803008 52.02246356 -165.98020375 51.0194119 -165 50 C-162.62835363 48.41890242 -160.65887072 47.1550284 -157.875 46.5 C-155.90131104 46.14139092 -155.90131104 46.14139092 -154.5625 44.5625 C-153 43 -153 43 -150.71484375 42.1171875 C-147.79403182 40.91524187 -145.55165271 39.41643517 -143 37.5625 C-134.65226411 31.52343481 -128.47586351 28.71044004 -118 30 C-112.8365065 32.0636848 -109.05787095 35.35203615 -106 40 C-104.73912121 43.78263638 -104.89588593 47.29409825 -104.9375 51.23168945 C-104.94694463 52.97129689 -104.95612835 54.71090575 -104.96508789 56.45051575 C-104.97138214 57.37297403 -104.97767639 58.29543232 -104.98416138 59.24584389 C-105.01113618 64.12938448 -105.00125558 69.01289014 -104.99609375 73.89648438 C-104.98988273 80.1119468 -104.99525981 86.32649959 -105.05126953 92.54174805 C-105.09555512 97.56426527 -105.09607649 102.58510868 -105.06713867 107.60771751 C-105.06405881 109.52027691 -105.0769496 111.43293199 -105.10620117 113.34527016 C-105.68149015 123.48525627 -105.68149015 123.48525627 -102.05053711 132.47128296 C-99.72541045 134.05518214 -97.64227183 135.06141826 -95 136 C-93.8062334 136.61294579 -92.61760754 137.23615147 -91.4375 137.875 C-90.2309375 138.431875 -90.2309375 138.431875 -89 139 C-89 139.66 -89 140.32 -89 141 C-88.12077881 141.27021973 -87.24155762 141.54043945 -86.33569336 141.81884766 C-83.1847336 142.93458675 -80.52283965 144.23988295 -77.62890625 145.8984375 C-76.64212891 146.46046875 -75.65535156 147.0225 -74.63867188 147.6015625 C-73.62353516 148.18679688 -72.60839844 148.77203125 -71.5625 149.375 C-70.55123047 149.9525 -69.53996094 150.53 -68.49804688 151.125 C-65.66260772 152.74525095 -62.83069953 154.37148643 -60 156 C-54.57335834 159.13624548 -54.57335834 159.13624548 -49 162 C-49 162.66 -49 163.32 -49 164 C-46.69 164.66 -44.38 165.32 -42 166 C-42 166.66 -42 167.32 -42 168 C-41.2884375 168.27585937 -40.576875 168.55171875 -39.84375 168.8359375 C-31.0466503 172.43694809 -22.93101702 177.1483446 -14.89453125 182.19140625 C-12.7417326 183.53654225 -10.59196617 184.82967633 -8.375 186.0625 C-5.4430564 187.74565281 -2.64171793 189.52775813 0.1875 191.375 C5.0577777 194.50541298 10.05645306 197.13759742 15.2734375 199.640625 C18.6616487 201.32987643 21.89024304 203.08158045 24.8125 205.5 C26.87768096 206.91612409 28.53398152 207.61570034 30.875 208.4375 C34.74325907 209.81384686 37.75073976 211.48182331 41 214 C41 214.66 41 215.32 41 216 C41.804375 216.20625 42.60875 216.4125 43.4375 216.625 C49.84398876 219.09767987 55.74339676 222.32754082 59.15841675 228.52281189 C61.14194833 234.36130837 60.47666886 240.88882421 60.390625 246.99609375 C60.38315581 248.55549898 60.37746608 250.11491366 60.37347412 251.67433167 C60.35827089 255.75982002 60.31903606 259.84473096 60.2746582 263.92999268 C60.23358999 268.10624381 60.21543857 272.2825891 60.1953125 276.45898438 C60.15253562 284.63958659 60.08435002 292.81972127 60 301 C61.76873145 300.0395931 63.53694249 299.07822776 65.30493164 298.11645508 C66.28965958 297.58119705 67.27438751 297.04593903 68.28895569 296.49446106 C71.87540548 294.51743341 75.34126475 292.37558176 78.80859375 290.19921875 C81 289 81 289 83.09765625 288.51953125 C85.46864603 287.87201248 86.29729512 286.73745396 88 285 C90.24217663 283.89515934 92.52364724 282.9905411 94.84375 282.0625 C97.07621324 280.96244565 98.27911169 279.76286119 100 278 C102.30965848 276.94647157 104.6429774 275.94280904 107 275 C107.66 274.67 108.32 274.34 109 274 C109.33 216.91 109.66 159.82 110 101 C108.35 100.34 106.7 99.68 105 99 C103.54176581 98.26332047 102.0962952 97.50088012 100.6640625 96.71484375 C99.45145752 96.0501709 99.45145752 96.0501709 98.21435547 95.37207031 C97.35986816 94.89866211 96.50538086 94.42525391 95.625 93.9375 C94.72797363 93.44217773 93.83094727 92.94685547 92.90673828 92.43652344 C87.244377 89.2924521 81.65946666 86.05377228 76.12719727 82.68603516 C69.99493356 78.96428541 63.78026809 75.38910029 57.5625 71.8125 C49.02612253 66.90122685 40.50199968 61.97056277 32 57 C22.52711741 51.46288955 13.0308059 45.96751257 3.51757812 40.5 C-5.35796395 35.3921054 -14.17185103 30.19302881 -23 25 C-22.67 44.14 -22.34 63.28 -22 83 C-19.69 83.99 -17.38 84.98 -15 86 C-15 86.66 -15 87.32 -15 88 C-14.29875 88.26554687 -13.5975 88.53109375 -12.875 88.8046875 C-3.84977727 92.55702195 4.52343671 97.85971418 12.796875 103.015625 C19.03852476 106.88240315 25.3100471 110.76242319 31.9375 113.9375 C36.74108217 116.26439115 41.20435598 119.14368859 45.7265625 121.96875 C49.50016081 124.31036231 53.32611049 126.55281864 57.171875 128.7734375 C59 130 59 130 60 132 C60.27081495 136.2862621 60.2316306 140.58115362 60.25 144.875 C60.2809375 146.67130859 60.2809375 146.67130859 60.3125 148.50390625 C60.31765625 149.65503906 60.3228125 150.80617188 60.328125 151.9921875 C60.3374707 153.04776855 60.34681641 154.10334961 60.35644531 155.19091797 C59.948613 158.40497182 59.33105318 159.7667303 57 162 C53.10756937 163.18456668 49.30157465 162.54948302 45.60351562 160.98828125 C43.0788883 159.58730823 40.66676956 158.07958948 38.25 156.5 C37.37239014 155.95045654 36.49478027 155.40091309 35.59057617 154.8347168 C33.04896094 153.24033959 30.52344665 151.6229246 28 150 C20.24453976 145.09210839 12.39145025 140.54971628 4.26098633 136.29980469 C-13.49803873 127.00392255 -13.49803873 127.00392255 -15 124 C-17.02463255 123.34786708 -17.02463255 123.34786708 -19 123 C-19 122.34 -19 121.68 -19 121 C-19.64453125 120.93039063 -20.2890625 120.86078125 -20.953125 120.7890625 C-25.27899111 119.6687741 -28.87549873 117.56495289 -32.75 115.375 C-33.95390381 114.69667114 -33.95390381 114.69667114 -35.18212891 114.00463867 C-51.08476725 104.903342 -51.08476725 104.903342 -55 96 C-55.50120544 92.33352661 -55.50120544 92.33352661 -55.50170898 88.37158203 C-55.50981346 87.27982666 -55.50981346 87.27982666 -55.51808167 86.16601562 C-55.53050492 83.77952362 -55.51411877 81.39425364 -55.49609375 79.0078125 C-55.49624892 77.33543841 -55.49774091 75.66306396 -55.50050354 73.99069214 C-55.50188478 70.49216741 -55.48937857 66.99405398 -55.46655273 63.49560547 C-55.43821293 59.03152734 -55.4408971 54.56813428 -55.45364285 50.10400581 C-55.46063021 46.6516647 -55.4527753 43.19947927 -55.44038582 39.74715805 C-55.43589784 38.1022794 -55.43551109 36.45738387 -55.43945122 34.81250381 C-55.45490131 22.68502558 -54.79717319 11.2404671 -46.0234375 1.89453125 C-32.03003083 -11.30543484 -15.508626 -9.40623432 0 0 Z " fill="#030202" transform="translate(351,123)"/>
<path d="M0 0 C2 2 2 2 3 5 C3.93392578 5.928125 3.93392578 5.928125 4.88671875 6.875 C7.12893987 9.12965488 8.35802131 11.18325741 9.8125 14 C14.53776129 22.90438686 19.24058457 31.48870148 25.71484375 39.2578125 C27 41 27 41 27 43 C27.66 43 28.32 43 29 43 C30.95101738 45.68264889 32.67600971 48.29484467 34.0625 51.3125 C34.95072841 53.35897871 34.95072841 53.35897871 38 54 C39.41569334 55.61473141 40.763175 57.29023402 42.0625 59 C44.5763671 62.54168988 44.5763671 62.54168988 48 65 C48 65.66 48 66.32 48 67 C48.56589844 67.25910156 49.13179687 67.51820313 49.71484375 67.78515625 C52.22707405 69.120718 54.32728237 70.67882623 56.5625 72.4375 C57.70912109 73.33275391 57.70912109 73.33275391 58.87890625 74.24609375 C60.70484725 75.75594183 62.32789629 77.32789629 64 79 C67.86703248 82.1863189 71.74716817 85.2585281 76.0625 87.8125 C76.701875 88.204375 77.34125 88.59625 78 89 C78 89.66 78 90.32 78 91 C78.99 91 79.98 91 81 91 C81 91.66 81 92.32 81 93 C81.56895996 93.11625732 82.13791992 93.23251465 82.72412109 93.35229492 C85.21878869 94.06226629 87.16287336 95.07781613 89.4140625 96.36328125 C90.25839844 96.83830078 91.10273438 97.31332031 91.97265625 97.80273438 C93.71814582 98.79630097 95.4629568 99.79106081 97.20703125 100.78710938 C102.99020172 104.03740866 108.80162885 106.65097592 115 109 C116.56389752 109.64244182 118.12656787 110.2878864 119.6875 110.9375 C121.45585727 111.631344 123.2268805 112.31841789 125 113 C125.96035156 113.38027344 126.92070312 113.76054688 127.91015625 114.15234375 C136.69106324 117.36687461 145.65544173 119.33565538 154.8125 121.1875 C156.03291992 121.43741699 157.25333984 121.68733398 158.51074219 121.94482422 C174.37835651 125.04917518 190.03950813 126.3021401 206.18945312 126.25878906 C207.92642868 126.2615087 209.66340309 126.26507501 211.40037537 126.26940918 C216.05948987 126.27842002 220.71851444 126.27503632 225.37763023 126.26865101 C230.2898823 126.2635317 235.20212746 126.26829873 240.11437988 126.27142334 C248.35833089 126.2750459 256.60224588 126.27030906 264.84619141 126.26074219 C274.33132391 126.24986097 283.81637038 126.25338776 293.3015008 126.264395 C301.49486599 126.2735169 309.68820552 126.27472933 317.88157415 126.26951766 C322.75338491 126.26642476 327.62515544 126.26591383 332.4969635 126.27259064 C337.08051068 126.27843539 341.66394864 126.27423916 346.24748421 126.26280212 C347.91377139 126.26019317 349.58006802 126.26085468 351.24635124 126.26532745 C366.012279 126.30126089 380.55775975 125.24689208 395 122 C396.53202816 121.70043303 398.0646094 121.4036844 399.59765625 121.109375 C418.5266099 117.3576556 418.5266099 117.3576556 435.87890625 109.296875 C438 108 438 108 440.20703125 107.12109375 C444.32662902 105.46749296 448.20043619 103.38071585 452.125 101.3125 C452.9715918 100.86769287 453.81818359 100.42288574 454.69042969 99.96459961 C460.23617281 97.01928579 465.51677832 93.87043447 470.75390625 90.40625 C473.7295469 88.5432402 476.72117656 87.23866663 480 86 C480 86.99 480 87.98 480 89 C478.07010572 90.58807915 476.20603767 91.95011477 474.125 93.3125 C473.5263916 93.71275391 472.9277832 94.11300781 472.31103516 94.52539062 C470.54835677 95.69579777 468.77563335 96.8493771 467 98 C466.20078125 98.52980469 465.4015625 99.05960938 464.578125 99.60546875 C421.34392508 126.97179742 374.00874557 131.33968656 324.28970337 131.26865101 C319.54664905 131.26350619 314.80360158 131.26830557 310.06054688 131.27142334 C302.10285021 131.27503872 294.14519095 131.27032831 286.1875 131.26074219 C277.05170442 131.24986239 267.91599819 131.2533897 258.78020477 131.264395 C250.86691282 131.27353776 242.95364741 131.27471934 235.04035187 131.26951766 C230.34451336 131.26643601 225.64871651 131.26588151 220.95288086 131.27259064 C172.07930926 131.33291939 172.07930926 131.33291939 151.875 126.8125 C150.41006104 126.49647827 150.41006104 126.49647827 148.91552734 126.17407227 C132.61342368 122.49919127 116.37181781 116.90985486 101.4375 109.375 C100.7669458 109.03726563 100.0963916 108.69953125 99.40551758 108.3515625 C83.92762232 100.43789045 69.89252639 91.18543981 56.5078125 80.078125 C54.76351152 78.63269179 52.98414926 77.22896648 51.1796875 75.859375 C50.46039063 75.24578125 49.74109375 74.6321875 49 74 C49 73.34 49 72.68 49 72 C48.41734375 71.7421875 47.8346875 71.484375 47.234375 71.21875 C44.8197097 69.90165983 43.18259823 68.44911616 41.25 66.5 C40.63640625 65.8915625 40.0228125 65.283125 39.390625 64.65625 C38 63 38 63 38 61 C37.01 60.67 36.02 60.34 35 60 C31.78394211 56.51440582 28.92095525 52.73457773 26 49 C25.48179688 48.34644531 24.96359375 47.69289063 24.4296875 47.01953125 C15.9498773 36.04423404 8.60142848 24.1813888 2 12 C1.42507812 10.94683594 0.85015625 9.89367187 0.2578125 8.80859375 C-1.26593173 5.40619591 -0.92991179 3.55057231 0 0 Z " fill="#DAC388" transform="translate(43,475)"/>
<path d="M0 0 C-1 3 -1 3 -3.1796875 4.16796875 C-4.06914062 4.50441406 -4.95859375 4.84085938 -5.875 5.1875 C-6.75929687 5.53167969 -7.64359375 5.87585937 -8.5546875 6.23046875 C-11 7 -11 7 -14 7 C-14 7.99 -14 8.98 -14 10 C-14.77525024 10.40557129 -14.77525024 10.40557129 -15.56616211 10.81933594 C-28.04286425 17.39312666 -39.72257893 24.53174079 -51 33 C-51.98190308 33.70370728 -51.98190308 33.70370728 -52.98364258 34.42163086 C-60.09014136 39.67154348 -66.21091009 45.90807447 -72.42211914 52.16137695 C-74.3189094 54.06894582 -76.22623362 55.96551477 -78.13476562 57.86132812 C-79.35741305 59.08529631 -80.57944039 60.30988429 -81.80078125 61.53515625 C-82.36436844 62.09469498 -82.92795563 62.6542337 -83.50862122 63.23072815 C-86.82133357 66.58275383 -89.48745254 69.98300387 -92 74 C-93.05792431 75.50323065 -94.12032615 77.00332161 -95.1875 78.5 C-114.17002135 105.67583185 -126.68431144 135.47023944 -132.3125 168.25 C-132.47202148 169.17079346 -132.63154297 170.09158691 -132.79589844 171.0402832 C-135.04421692 185.20890834 -135.15070261 199.59738177 -135.14526367 213.91088867 C-135.14826675 215.52300085 -135.15167185 217.13511233 -135.15544128 218.7472229 C-135.16416819 223.07193954 -135.16661454 227.39663632 -135.16725707 231.72136092 C-135.16797398 234.43779623 -135.17012023 237.15422669 -135.17275429 239.87066078 C-135.18196987 249.3884678 -135.1860939 258.90626093 -135.18530273 268.42407227 C-135.18470278 277.23029609 -135.19524839 286.0364585 -135.2110464 294.8426668 C-135.22421304 302.45942917 -135.22948285 310.07617168 -135.22884732 317.6929453 C-135.22859503 322.21726199 -135.23129505 326.74152396 -135.24202538 331.26582909 C-135.37720783 365.32834699 -135.37720783 365.32834699 -130.625 399 C-130.40585938 400.04760498 -130.18671875 401.09520996 -129.9609375 402.17456055 C-127.80773445 412.26848227 -125.40518983 421.97965008 -121.1875 431.4375 C-119.11176777 436.20022304 -118.344649 439.033947 -120 444 C-120.66 444.33 -121.32 444.66 -122 445 C-127.69609759 431.37634392 -132.24989706 417.68109398 -135.6875 403.3125 C-135.88996338 402.50159912 -136.09242676 401.69069824 -136.30102539 400.85522461 C-141.4086473 378.57883944 -140.29922993 355.27040367 -140.26865101 332.57633471 C-140.26352097 327.56627366 -140.26830154 322.55621925 -140.27142334 317.54615784 C-140.27504253 309.14021469 -140.27031771 300.7343069 -140.26074219 292.32836914 C-140.24985808 282.66314659 -140.25339125 272.99800845 -140.264395 263.33278793 C-140.27352239 254.97542592 -140.2747268 246.61808905 -140.26951766 238.26072365 C-140.26642818 233.29499657 -140.26590412 228.32930893 -140.27259064 223.36358452 C-140.27844371 218.69216916 -140.27422462 214.0208608 -140.26280212 209.34945679 C-140.26019763 207.65336852 -140.2608466 205.95727095 -140.26532745 204.2611866 C-140.30429321 187.98957046 -139.30135904 171.75646935 -135.5625 155.875 C-135.35818359 154.95203125 -135.15386719 154.0290625 -134.94335938 153.078125 C-130.74358006 134.49966196 -124.05644406 116.74043473 -115 100 C-114.67386719 99.39317383 -114.34773438 98.78634766 -114.01171875 98.16113281 C-107.52940102 86.19725357 -99.90686085 75.20690632 -91.375 64.625 C-90.8488208 63.97096191 -90.3226416 63.31692383 -89.78051758 62.64306641 C-86.10384936 58.15374528 -82.15999174 54.04167945 -78 50 C-77.195625 49.195625 -76.39125 48.39125 -75.5625 47.5625 C-74.716875 46.716875 -73.87125 45.87125 -73 45 C-72.19369141 44.14148438 -72.19369141 44.14148438 -71.37109375 43.265625 C-65.46475827 37.10034788 -58.84035476 32.0587524 -52 27 C-51.44006348 26.57928223 -50.88012695 26.15856445 -50.30322266 25.72509766 C-16.01960194 0 -16.01960194 0 0 0 Z " fill="#DBC588" transform="translate(162,31)"/>
<path d="M0 0 C1.91062619 -0.00435781 3.82125064 -0.00954449 5.73187256 -0.01548767 C10.87887725 -0.02877588 16.02580805 -0.02946764 21.17282653 -0.02692437 C25.49120039 -0.02584742 29.80955974 -0.03075655 34.12793046 -0.03552979 C44.32895057 -0.04659043 54.52993384 -0.04708225 64.73095703 -0.04101562 C75.20382702 -0.0349824 85.67656243 -0.0472783 96.14940947 -0.06858569 C105.18605178 -0.08628522 114.22265158 -0.09218985 123.25931054 -0.08894795 C128.63651051 -0.08714775 134.01361453 -0.08964322 139.39079857 -0.10366249 C144.45449582 -0.11637257 149.51798569 -0.11417418 154.5816803 -0.1012516 C156.42289619 -0.09891441 158.2641273 -0.10151559 160.1053257 -0.10987473 C177.24075022 -0.18196146 193.75110912 1.81970992 210.28051758 6.4621582 C211.28727539 6.73479492 212.2940332 7.00743164 213.33129883 7.28833008 C215.73397378 7.94048471 218.1334316 8.60231278 220.53051758 9.2746582 C220.53051758 9.9346582 220.53051758 10.5946582 220.53051758 11.2746582 C214.8793127 11.67123398 210.46382932 11.08413435 205.03051758 9.4621582 C181.33676271 2.90085735 156.61201618 3.86200835 132.25852966 4.00835419 C128.22829313 4.03041892 124.19805251 4.04174 120.1677742 4.0532589 C107.38047722 4.09045103 94.59356622 4.16694223 81.80651855 4.25309753 C78.52279269 4.27470904 75.23906105 4.29478789 71.95532227 4.31433105 C58.07870132 4.39716733 44.20238193 4.499739 30.32606506 4.62342834 C27.30157707 4.64947683 24.27707853 4.67276721 21.25256348 4.69543457 C16.47909886 4.7320196 11.70582485 4.77854172 6.93252563 4.83246994 C5.19510861 4.85078812 3.45765695 4.86613919 1.72018433 4.87807083 C-9.47872932 4.95816382 -20.37404668 5.75452161 -31.46948242 7.2746582 C-33.04406219 7.47700577 -33.04406219 7.47700577 -34.65045166 7.68344116 C-45.78299281 9.16205824 -56.83311898 12.72920372 -67.46948242 16.2746582 C-68.86387907 16.34131196 -70.26118117 16.36004019 -71.65698242 16.3371582 C-73.54416992 16.3062207 -73.54416992 16.3062207 -75.46948242 16.2746582 C-72.01742067 10.33711199 -65.16970732 9.61672726 -58.9675293 7.92895508 C-54.46232293 6.74893621 -49.94267961 5.64368657 -45.40698242 4.5871582 C-44.5467749 4.38485596 -43.68656738 4.18255371 -42.80029297 3.97412109 C-28.48093058 0.76546136 -14.61084274 -0.02227289 0 0 Z " fill="#CEAF5E" transform="translate(238.469482421875,15.725341796875)"/>
<path d="M0 0 C0.66 0.66 1.32 1.32 2 2 C-22.37137352 21.05633994 -53.16236757 35.23170354 -83.625 41.0625 C-84.50438232 41.23168945 -85.38376465 41.40087891 -86.28979492 41.57519531 C-97.10603597 43.53851755 -108.04105171 44.29601742 -119 45 C-119 44.34 -119 43.68 -119 43 C-119.81093801 43.00184359 -120.62187603 43.00368717 -121.45738792 43.00558662 C-141.31138666 43.05001304 -161.16537668 43.08297568 -181.0194149 43.10362434 C-190.62119726 43.11387869 -200.22294617 43.12782529 -209.82470703 43.15087891 C-218.20659175 43.1709938 -226.58845221 43.1837587 -234.9703604 43.18817699 C-239.39669721 43.19075419 -243.82296472 43.19668508 -248.24927902 43.21146011 C-302.26712132 43.38447733 -302.26712132 43.38447733 -320 38 C-320 37.67 -320 37.34 -320 37 C-314.29887493 37.47718668 -308.6213638 38.04381376 -302.94396925 38.75321412 C-292.86825702 39.97650304 -282.95052579 40.28600765 -272.81054688 40.25878906 C-271.07357132 40.2615087 -269.33659691 40.26507501 -267.59962463 40.26940918 C-262.94051013 40.27842002 -258.28148556 40.27503632 -253.62236977 40.26865101 C-248.7101177 40.2635317 -243.79787254 40.26829873 -238.88562012 40.27142334 C-230.64166911 40.2750459 -222.39775412 40.27030906 -214.15380859 40.26074219 C-204.66867609 40.24986097 -195.18362962 40.25338776 -185.6984992 40.264395 C-177.50513401 40.2735169 -169.31179448 40.27472933 -161.11842585 40.26951766 C-156.24661509 40.26642476 -151.37484456 40.26591383 -146.5030365 40.27259064 C-141.91948932 40.27843539 -137.33605136 40.27423916 -132.75251579 40.26280212 C-131.08622861 40.26019317 -129.41993198 40.26085468 -127.75364876 40.26532745 C-112.987721 40.30126089 -98.44224025 39.24689208 -84 36 C-82.46797184 35.70043303 -80.9353906 35.4036844 -79.40234375 35.109375 C-60.4733901 31.3576556 -60.4733901 31.3576556 -43.12109375 23.296875 C-41 22 -41 22 -38.79296875 21.12109375 C-34.67339249 19.4675016 -30.79946538 17.380867 -26.875 15.3125 C-26.0291333 14.86769287 -25.1832666 14.42288574 -24.31176758 13.96459961 C-18.75413692 11.01099427 -13.43207795 7.87511846 -8.1796875 4.40625 C-5.53552694 2.70033996 -2.85625919 1.3123353 0 0 Z " fill="#D1B367" transform="translate(522,561)"/>
<path d="M0 0 C9.43959097 14.15938646 4.29179609 45.92092241 4.26865101 62.65147972 C4.26351374 67.54048241 4.26830355 72.42947838 4.27142334 77.31848145 C4.27504083 85.52174244 4.27032262 93.72496719 4.26074219 101.92822266 C4.24986197 111.35201121 4.25338913 120.77571315 4.264395 130.19949961 C4.2735316 138.355641 4.27472228 146.51175664 4.26951766 154.66790152 C4.26643269 159.51071684 4.26589108 164.35349175 4.27259064 169.19630432 C4.33024864 217.42529746 4.33024864 217.42529746 1 230 C0.34 230 -0.32 230 -1 230 C-0.92935333 228.82668121 -0.85870667 227.65336243 -0.78591919 226.44448853 C0.27233567 206.97315881 0.14735852 187.49584791 0.1343255 168.00262022 C0.13175694 162.94499378 0.13415169 157.88736896 0.13571167 152.82974243 C0.1375201 144.34580148 0.13516179 135.8618693 0.13037109 127.37792969 C0.12492753 117.62636532 0.12669721 107.87482186 0.1321975 98.12325799 C0.13676247 89.686016 0.13736284 81.24878022 0.13475883 72.81153738 C0.13321501 67.80054674 0.13294949 62.78956588 0.13629532 57.7785759 C0.13956651 52.18619473 0.13754085 46.59384118 0.12939453 41.00146484 C0.12819115 40.13639336 0.12698777 39.27132188 0.12574792 38.38003612 C0.10364737 27.71338083 -0.03085814 17.07531313 -0.73892021 6.42735863 C-0.85762867 4.62004143 -0.9346568 2.81003243 -1 1 C-0.67 0.67 -0.34 0.34 0 0 Z " fill="#D5BC78" transform="translate(608,196)"/>
<path d="M0 0 C0.33 0 0.66 0 1 0 C0.93941406 0.81339844 0.87882812 1.62679687 0.81640625 2.46484375 C-0.29261951 17.63290378 -1.15104326 32.70090599 -1.14526367 47.91088867 C-1.14826675 49.52300085 -1.15167185 51.13511233 -1.15544128 52.7472229 C-1.16416819 57.07193954 -1.16661454 61.39663632 -1.16725707 65.72136092 C-1.16797398 68.43779623 -1.17012023 71.15422669 -1.17275429 73.87066078 C-1.18196987 83.3884678 -1.1860939 92.90626093 -1.18530273 102.42407227 C-1.18470278 111.23029609 -1.19524839 120.0364585 -1.2110464 128.8426668 C-1.22421304 136.45942917 -1.22948285 144.07617168 -1.22884732 151.6929453 C-1.22859503 156.21726199 -1.23129505 160.74152396 -1.24202538 165.26582909 C-1.37720783 199.32834699 -1.37720783 199.32834699 3.375 233 C3.70371094 234.57140747 3.70371094 234.57140747 4.0390625 236.17456055 C6.19226555 246.26848227 8.59481017 255.97965008 12.8125 265.4375 C14.88823223 270.20022304 15.655351 273.033947 14 278 C13.34 278.33 12.68 278.66 12 279 C4.61829711 261.3447931 -0.17150224 243.73132539 -4 225 C-3.34 225 -2.68 225 -2 225 C-2.0702388 223.89388367 -2.1404776 222.78776733 -2.21284485 221.64813232 C-3.30189522 202.58230152 -3.16466874 183.49848018 -3.16725707 164.40907764 C-3.16797492 161.42747886 -3.17012273 158.44588448 -3.17275429 155.4642868 C-3.18195527 145.0238771 -3.18609516 134.58348003 -3.18530273 124.14306641 C-3.18470097 114.46926824 -3.19528563 104.79552564 -3.2110464 95.12174153 C-3.22417825 86.75845051 -3.22948439 78.39517756 -3.22884732 70.03187633 C-3.22859432 65.06175054 -3.23133623 60.09167448 -3.24202538 55.12155914 C-3.25180421 50.44932454 -3.25171955 45.77718632 -3.24450874 41.10494804 C-3.24347547 39.40640304 -3.2457494 37.70785169 -3.2518692 36.0093174 C-3.35050513 6.70101027 -3.35050513 6.70101027 0 0 Z " fill="#D2B56B" transform="translate(28,197)"/>
<path d="M0 0 C1.92183565 -0.0027159 3.84367026 -0.00628017 5.76550293 -0.01062012 C10.94515999 -0.01967453 16.12473664 -0.01622892 21.30439496 -0.00986195 C26.7475233 -0.00476648 32.19064517 -0.00950313 37.6337738 -0.01263428 C46.77002181 -0.01626333 55.90623739 -0.01150242 65.04248047 -0.00195312 C75.57849493 0.00893262 86.11443198 0.00540066 96.65044457 -0.00560594 C105.7268701 -0.01470522 114.80327245 -0.0159513 123.87970108 -0.0107286 C129.28740865 -0.00762382 134.69507993 -0.00715837 140.10278511 -0.01380157 C145.187754 -0.01961307 150.27262382 -0.01550905 155.35758209 -0.00401306 C157.21463545 -0.00138685 159.07169727 -0.00209632 160.92874718 -0.00653839 C171.0125958 -0.02842045 180.60504149 0.29330183 190.53295898 2.25878906 C190.53295898 2.91878906 190.53295898 3.57878906 190.53295898 4.25878906 C189.01223228 4.28632737 187.49135225 4.30542281 185.97045898 4.32128906 C185.12354492 4.33289063 184.27663086 4.34449219 183.40405273 4.35644531 C180.53295898 4.25878906 180.53295898 4.25878906 177.34183884 3.76104259 C173.44315648 3.24694736 169.64233151 3.11632671 165.7197876 3.12507629 C164.96358808 3.12281074 164.20738857 3.12054518 163.42827392 3.11821097 C160.91009323 3.11191269 158.39196695 3.11269767 155.8737793 3.11352539 C154.06123282 3.11053107 152.24868698 3.10712791 150.43614197 3.10334778 C145.52014485 3.0945258 140.60416516 3.09217026 135.6881609 3.09153199 C132.60897708 3.09081983 129.52979765 3.08868222 126.45061493 3.08603477 C115.6849286 3.07678336 104.91925463 3.07269914 94.15356445 3.07348633 C84.15915868 3.07408526 74.16480721 3.06356933 64.17041516 3.04774266 C55.56197778 3.03460253 46.95355798 3.02930522 38.34511065 3.02994174 C33.21655796 3.03019507 28.08805341 3.0274365 22.9595108 3.01676369 C18.12331777 3.00697464 13.2872178 3.00707633 8.45102119 3.01428032 C6.69163182 3.01531328 4.93223632 3.01304159 3.17285728 3.00691986 C-8.8335534 2.96790532 -20.55019749 3.79021815 -32.46704102 5.25878906 C-32.79704102 4.26878906 -33.12704102 3.27878906 -33.46704102 2.25878906 C-22.24008474 0.23632324 -11.36914217 -0.02722762 0 0 Z " fill="#DDC589" transform="translate(238.467041015625,15.7412109375)"/>
<path d="M0 0 C2 2 2 2 3 5 C3.93392578 5.928125 3.93392578 5.928125 4.88671875 6.875 C7.12893987 9.12965488 8.35802131 11.18325741 9.8125 14 C14.53776129 22.90438686 19.24058457 31.48870148 25.71484375 39.2578125 C27 41 27 41 27 43 C27.66 43 28.32 43 29 43 C30.95101738 45.68264889 32.67600971 48.29484467 34.0625 51.3125 C34.95072841 53.35897871 34.95072841 53.35897871 38 54 C39.41569334 55.61473141 40.763175 57.29023402 42.0625 59 C44.5763671 62.54168988 44.5763671 62.54168988 48 65 C48.63228516 66.10794922 48.63228516 66.10794922 49.27734375 67.23828125 C51.31438711 70.50401743 53.67723379 72.64800471 56.5625 75.1875 C58.01849609 76.47720703 58.01849609 76.47720703 59.50390625 77.79296875 C60.32761719 78.52128906 61.15132812 79.24960937 62 80 C62.66 80.66 63.32 81.32 64 82 C62.359375 82.76953125 62.359375 82.76953125 60 83 C57.203125 81.19921875 57.203125 81.19921875 54.25 78.6875 C53.26515625 77.86636719 52.2803125 77.04523438 51.265625 76.19921875 C50.14414063 75.11060547 50.14414063 75.11060547 49 74 C49 73.34 49 72.68 49 72 C48.41734375 71.7421875 47.8346875 71.484375 47.234375 71.21875 C44.8197097 69.90165983 43.18259823 68.44911616 41.25 66.5 C40.63640625 65.8915625 40.0228125 65.283125 39.390625 64.65625 C38 63 38 63 38 61 C37.01 60.67 36.02 60.34 35 60 C31.78394211 56.51440582 28.92095525 52.73457773 26 49 C25.48179688 48.34644531 24.96359375 47.69289063 24.4296875 47.01953125 C15.9498773 36.04423404 8.60142848 24.1813888 2 12 C1.42507812 10.94683594 0.85015625 9.89367187 0.2578125 8.80859375 C-1.26593173 5.40619591 -0.92991179 3.55057231 0 0 Z " fill="#D4BB7A" transform="translate(43,475)"/>
<path d="M0 0 C0.66 0 1.32 0 2 0 C2.00331015 0.91015775 2.00662029 1.82031549 2.01003075 2.75805378 C2.09151222 24.9796975 2.18368533 47.20127492 2.28752708 69.42282581 C2.3374921 80.16932081 2.38393583 90.91580878 2.421875 101.66235352 C2.45498029 111.03707143 2.49491148 120.41173215 2.54279006 129.78638667 C2.56787225 134.74287579 2.58970575 139.69932789 2.60334396 144.65586281 C2.61633245 149.33687322 2.63856071 154.0177554 2.66738319 158.69869423 C2.67632974 160.4016225 2.68211824 162.10457134 2.68421364 163.80752182 C2.69845582 173.63871035 3.17000796 183.25711987 4.39267957 193.01979429 C5.09801943 198.80396115 5.09801943 198.80396115 4 201 C3.34 201 2.68 201 2 201 C0.49395228 187.9876958 -0.28663143 175.20860496 -0.22705078 162.11425781 C-0.22648449 160.32807929 -0.22680745 158.5419003 -0.22793579 156.75572205 C-0.22850183 151.97809075 -0.21687109 147.20056306 -0.20278788 142.42295551 C-0.19015347 137.40353759 -0.18910013 132.38411643 -0.18673706 127.36468506 C-0.18055919 117.89155734 -0.1641992 108.41847664 -0.14403808 98.94536948 C-0.12156304 88.14705246 -0.11065668 77.348733 -0.10064721 66.55039835 C-0.07982904 44.36690615 -0.04472613 22.18345605 0 0 Z " fill="#E0CB96" transform="translate(22,221)"/>
<path d="M0 0 C-1 3 -1 3 -3.1796875 4.16796875 C-4.51386719 4.67263672 -4.51386719 4.67263672 -5.875 5.1875 C-6.75929688 5.53167969 -7.64359375 5.87585937 -8.5546875 6.23046875 C-11 7 -11 7 -14 7 C-14 7.99 -14 8.98 -14 10 C-14.77525024 10.40557129 -14.77525024 10.40557129 -15.56616211 10.81933594 C-28.04286425 17.39312666 -39.72257893 24.53174079 -51 33 C-51.98190308 33.70370728 -51.98190308 33.70370728 -52.98364258 34.42163086 C-60.09014136 39.67154348 -66.21091009 45.90807447 -72.42211914 52.16137695 C-74.3189094 54.06894582 -76.22623362 55.96551477 -78.13476562 57.86132812 C-79.35741305 59.08529631 -80.57944039 60.30988429 -81.80078125 61.53515625 C-82.36436844 62.09469498 -82.92795563 62.6542337 -83.50862122 63.23072815 C-86.82133357 66.58275383 -89.48745254 69.98300387 -92 74 C-93.05792431 75.50323065 -94.12032615 77.00332161 -95.1875 78.5 C-102.03458555 88.30245153 -108.28541709 98.04431407 -113.43725586 108.84619141 C-114.75659686 111.60214815 -115.82144802 113.82144802 -118 116 C-117.40553105 112.29447687 -116.35713585 109.38505149 -114.625 106.0625 C-114.17125 105.1859375 -113.7175 104.309375 -113.25 103.40625 C-112.8375 102.6121875 -112.425 101.818125 -112 101 C-111.54625 100.030625 -111.0925 99.06125 -110.625 98.0625 C-98.48454071 75.18240364 -80.80653183 54.56612497 -61 38 C-60.05125 37.19691406 -59.1025 36.39382812 -58.125 35.56640625 C-53.09362064 31.32640854 -48.06445952 27.1600724 -42.62109375 23.44921875 C-40.83291053 22.02107676 -40.83291053 22.02107676 -39.74609375 19.609375 C-37.33421247 16.00504235 -34.40123464 14.56134435 -30.625 12.5625 C-29.91617676 12.17634521 -29.20735352 11.79019043 -28.47705078 11.39233398 C-7.31342638 0 -7.31342638 0 0 0 Z " fill="#D0B364" transform="translate(162,31)"/>
<path d="M0 0 C0.99 0.33 1.98 0.66 3 1 C3.33 30.7 3.66 60.4 4 91 C2 90 2 90 0.88919067 87.96064758 C-0.25298372 84.1576659 -0.26343702 80.56065245 -0.22705078 76.62963867 C-0.22734283 75.79985504 -0.22763489 74.97007141 -0.22793579 74.11514282 C-0.22654661 71.38264371 -0.21100483 68.65042001 -0.1953125 65.91796875 C-0.19158091 64.01939544 -0.18873462 62.12082019 -0.18673706 60.22224426 C-0.17911214 55.23274388 -0.15947342 50.2433605 -0.1373291 45.25390625 C-0.1168461 40.15952131 -0.10773009 35.0651174 -0.09765625 29.97070312 C-0.07622648 19.98041743 -0.04210428 9.99021846 0 0 Z " fill="#95814D" transform="translate(376,366)"/>
<path d="M0 0 C0.99 0.99 0.99 0.99 2 2 C-14.70433588 15.06136901 -33.28371932 24.29609872 -53 32 C-53.94230469 32.36867188 -54.88460938 32.73734375 -55.85546875 33.1171875 C-61.51938196 35.25775608 -67.05880961 36.83124123 -73 38 C-73.33 37.34 -73.66 36.68 -74 36 C-69.18943768 34.02154326 -64.39390618 32.08499915 -59.4375 30.5 C-52.89284728 28.36864407 -46.87020672 25.58734855 -41 22 C-39.97519531 21.60748047 -39.97519531 21.60748047 -38.9296875 21.20703125 C-34.77627764 19.49582639 -30.84686212 17.40584718 -26.875 15.3125 C-26.0291333 14.86769287 -25.1832666 14.42288574 -24.31176758 13.96459961 C-18.75413692 11.01099427 -13.43207795 7.87511846 -8.1796875 4.40625 C-5.53552694 2.70033996 -2.85625919 1.3123353 0 0 Z " fill="#D4B870" transform="translate(522,561)"/>
<path d="M0 0 C3.79049707 1.42749981 7.27122456 3.16236542 10.8125 5.125 C12.27623047 5.93324219 12.27623047 5.93324219 13.76953125 6.7578125 C14.50558594 7.16773438 15.24164063 7.57765625 16 8 C16 8.66 16 9.32 16 10 C16.55429687 10.09152344 17.10859375 10.18304688 17.6796875 10.27734375 C28.89279066 13.76964019 40.12538645 26.08548245 48.6796875 33.90234375 C50.68697126 35.71700938 52.72982722 37.46095525 54.8125 39.1875 C57.95991947 41.86504405 60.51867965 44.69157287 63 48 C63 48.66 63 49.32 63 50 C63.66 50.33 64.32 50.66 65 51 C60.09061466 50.60867218 57.70945879 48.19320089 54.5 44.75 C54.03980469 44.27175781 53.57960938 43.79351562 53.10546875 43.30078125 C51.73140512 41.8725292 50.36565596 40.43629334 49 39 C46.28268755 36.19412329 43.9555054 33.97061677 40.6875 31.8125 C39.800625 31.214375 38.91375 30.61625 38 30 C38 29.34 38 28.68 38 28 C37.41911621 27.72687988 36.83823242 27.45375977 36.23974609 27.17236328 C34.03263844 26.01708413 32.15471115 24.73579653 30.1640625 23.2421875 C29.43574219 22.70271484 28.70742188 22.16324219 27.95703125 21.60742188 C27.18746094 21.03572266 26.41789063 20.46402344 25.625 19.875 C18.87315645 14.89620154 12.09742078 10.58664947 4.625 6.78125 C1.65086239 4.76308519 0.93571565 3.41536213 0 0 Z " fill="#D3B772" transform="translate(494,40)"/>
<path d="M0 0 C0.99 0.33 1.98 0.66 3 1 C4.2109375 3.52734375 4.2109375 3.52734375 5.375 6.9375 C5.58705078 7.55286621 5.79910156 8.16823242 6.01757812 8.80224609 C7.9722769 14.61012322 9.54757882 20.51766675 11.11132812 26.44042969 C12.35942021 31.05440821 13.89660195 35.3208148 15.875 39.6875 C17.94245323 44.35385211 18.62738815 47.11783556 17 52 C16.01 52.495 16.01 52.495 15 53 C0 17.12371134 0 17.12371134 0 0 Z " fill="#D1B66D" transform="translate(25,423)"/>
<path d="M0 0 C0.33 0 0.66 0 1 0 C1 56.1 1 112.2 1 170 C1.66 170.33 2.32 170.66 3 171 C2.69270217 174.58379939 2.37825744 178.16693684 2.0625 181.75 C1.97548828 182.76578125 1.88847656 183.7815625 1.79882812 184.828125 C1.71181641 185.8078125 1.62480469 186.7875 1.53515625 187.796875 C1.456604 188.69760742 1.37805176 189.59833984 1.29711914 190.52636719 C1.02860561 192.76184712 0.60337582 194.83403551 0 197 C-0.66 197 -1.32 197 -2 197 C-1.93148331 195.80733017 -1.86296661 194.61466034 -1.79237366 193.385849 C-0.79590496 174.44271767 -0.7802857 155.49601734 -0.69667697 136.53227735 C-0.67450115 131.71705265 -0.64727015 126.90185631 -0.62062073 122.08665466 C-0.57111369 113.00678229 -0.52602284 103.92689381 -0.48259836 94.84699053 C-0.43286223 84.49355191 -0.37808148 74.14014179 -0.32291877 63.78673089 C-0.20974508 42.52451392 -0.10277063 21.26226963 0 0 Z " fill="#CDAC56" transform="translate(609,229)"/>
<path d="M0 0 C1.15831518 -0.00399307 2.31663036 -0.00798615 3.51004601 -0.01210022 C4.51309934 -0.01634758 5.51615267 -0.02059494 6.54960155 -0.02497101 C9.96242613 0.0344671 13.13935604 0.42999811 16.5005703 1.02098083 C18.13445702 1.29941833 18.13445702 1.29941833 19.80135155 1.58348083 C20.58896873 1.72785583 21.37658592 1.87223083 22.1880703 2.02098083 C22.1880703 2.68098083 22.1880703 3.34098083 22.1880703 4.02098083 C20.6673436 4.04851915 19.14646356 4.06761459 17.6255703 4.08348083 C16.77865623 4.0950824 15.93174217 4.10668396 15.05916405 4.11863708 C12.1880703 4.02098083 12.1880703 4.02098083 8.99070454 3.52476597 C5.12910823 3.01316935 1.36072095 2.86832024 -2.52517128 2.86276245 C-3.64282721 2.85535549 -3.64282721 2.85535549 -4.78306204 2.84779888 C-7.2626532 2.83252473 -9.74221868 2.82409083 -12.22184181 2.81565857 C-14.00610515 2.8060721 -15.79036625 2.79606158 -17.57462502 2.78565979 C-22.40668668 2.75868793 -27.23875804 2.7376367 -32.07085299 2.7176578 C-37.12507109 2.6957505 -42.17925957 2.66838507 -47.23345375 2.64160156 C-56.79905718 2.59173873 -66.36467709 2.54677617 -75.93031269 2.5035792 C-86.82266945 2.45415198 -97.71499649 2.39925422 -108.60732448 2.34389961 C-131.00883182 2.23017798 -153.41036767 2.12331764 -175.8119297 2.02098083 C-175.8119297 1.69098083 -175.8119297 1.36098083 -175.8119297 1.02098083 C-153.61043661 0.89013354 -131.40894098 0.75972391 -109.20744228 0.62982941 C-98.89795054 0.56950147 -88.58845966 0.50903255 -78.27897072 0.44822693 C-69.28889828 0.39520362 -60.29882431 0.34244974 -51.30874842 0.29001379 C-46.5525375 0.26226323 -41.79632743 0.23438154 -37.04011917 0.20617676 C-32.55454062 0.1795811 -28.06896008 0.15334833 -23.58337784 0.12738228 C-21.94564169 0.11783993 -20.30790628 0.10817011 -18.67017174 0.09835625 C-12.44679884 0.06111906 -6.22338757 0.03425348 0 0 Z " fill="#D8BE7C" transform="translate(406.8119297027588,15.979019165039063)"/>
<path d="M0 0 C0.33 0 0.66 0 1 0 C1.00634791 1.50055325 1.00634791 1.50055325 1.01282406 3.03142071 C1.11596414 27.35946347 1.22470574 51.68747625 1.33933926 76.01546764 C1.39464485 87.78023981 1.44812251 99.54501501 1.49731445 111.30981445 C1.54018889 121.56260547 1.58647515 131.8153744 1.63687855 142.06813127 C1.66345318 147.49812868 1.68830565 152.92812178 1.70907402 158.35814476 C1.72866985 163.46751637 1.75282252 168.57684604 1.78049088 173.68618011 C1.78984569 175.56270142 1.79752659 177.43923192 1.80341911 179.31576729 C1.81170696 181.87581528 1.82599117 184.43576221 1.84178162 186.99577332 C1.84324878 188.11202938 1.84324878 188.11202938 1.84474558 189.25083607 C1.8741766 192.95612089 2.11677377 196.39629008 3 200 C2.01 199.67 1.02 199.34 0 199 C-0.77183368 193.5617881 -1.13424073 188.28339328 -1.08229065 182.78686523 C-1.07744696 181.60667439 -1.07744696 181.60667439 -1.07250541 180.4026413 C-1.06052057 177.7879071 -1.04112983 175.17328261 -1.02172852 172.55859375 C-1.01157614 170.67566663 -1.00188352 168.79273698 -0.99261475 166.9098053 C-0.96622977 161.81329918 -0.933431 156.71685232 -0.89946485 151.62039185 C-0.8650264 146.28861546 -0.83650857 140.95680745 -0.80735779 135.625 C-0.75129653 125.5352298 -0.68992473 115.44549919 -0.62663645 105.35577202 C-0.55482619 93.86610639 -0.48894914 82.37640912 -0.42356598 70.8867054 C-0.28897074 47.25776255 -0.14693908 23.62886909 0 0 Z " fill="#756C54" transform="translate(130,213)"/>
<path d="M0 0 C3.33980382 0.58593049 6.2614127 1.41716614 9.375 2.75 C22.36255396 8.02918246 35.26486196 11.35350946 49 14 C49 14.66 49 15.32 49 16 C49.99 16.33 50.98 16.66 52 17 C44.16094167 17.99671876 37.60942629 18.12830697 30 16 C29.25637207 15.80486816 28.51274414 15.60973633 27.74658203 15.40869141 C25.15470441 14.72023175 22.57748055 13.99042941 20 13.25 C19.14978271 13.0223999 18.29956543 12.7947998 17.42358398 12.56030273 C15.11830159 11.86386455 13.08902495 11.19993228 11 10 C9.4375 6.796875 9.4375 6.796875 9 4 C7.88625 3.896875 6.7725 3.79375 5.625 3.6875 C3.830625 3.3471875 3.830625 3.3471875 2 3 C1.34 2.01 0.68 1.02 0 0 Z " fill="#D3BD7F" transform="translate(153,583)"/>
<path d="M0 0 C0.00586624 0.87616974 0.01173248 1.75233948 0.01777649 2.65505981 C0.0757498 10.92384274 0.14785316 19.19235688 0.23571491 27.46087837 C0.28038721 31.71152973 0.31965013 35.96208594 0.34643555 40.21289062 C0.37250005 44.31739652 0.41292439 48.42153566 0.46318626 52.52581406 C0.47983377 54.08939924 0.49136122 55.65304783 0.49761391 57.21670914 C0.50727838 59.41195103 0.53536356 61.60625912 0.56762695 63.80126953 C0.57873001 65.04925323 0.58983307 66.29723694 0.60127258 67.58303833 C1.22712092 72.94635094 3.65337507 76.8565596 7 81 C2.78220697 79.49364535 1.2252326 76.75987578 -1 73 C-2.13502438 69.59492687 -2.12016228 67.00779288 -2.11352539 63.41723633 C-2.11367142 62.75355545 -2.11381744 62.08987457 -2.1139679 61.40608215 C-2.11327182 59.21469848 -2.1054937 57.02340005 -2.09765625 54.83203125 C-2.09579099 53.31174262 -2.09436759 51.79145339 -2.09336853 50.27116394 C-2.08955188 46.27135557 -2.07972885 42.27158356 -2.06866455 38.27178955 C-2.05843213 34.18966158 -2.05386698 30.10752773 -2.04882812 26.02539062 C-2.03810583 18.01691041 -2.02103961 10.00845973 -2 2 C-3.32 2.33 -4.64 2.66 -6 3 C-3.375 0 -3.375 0 0 0 Z " fill="#786E54" transform="translate(214,196)"/>
<path d="M0 0 C-1.97420135 2.52259061 -2.96745642 2.9929808 -6.1875 3.6875 C-7.5796875 3.8421875 -7.5796875 3.8421875 -9 4 C-9 4.66 -9 5.32 -9 6 C-9.62044189 6.176521 -10.24088379 6.35304199 -10.88012695 6.53491211 C-13.69111565 7.33508216 -16.50181058 8.13627934 -19.3125 8.9375 C-20.28896484 9.21529297 -21.26542969 9.49308594 -22.27148438 9.77929688 C-23.20927734 10.04677734 -24.14707031 10.31425781 -25.11328125 10.58984375 C-25.97735596 10.83597412 -26.84143066 11.08210449 -27.73168945 11.33569336 C-29.49910178 11.85330491 -31.25285912 12.41761971 -33 13 C-34.39439664 13.06665376 -35.79169875 13.08538199 -37.1875 13.0625 C-39.0746875 13.0315625 -39.0746875 13.0315625 -41 13 C-38.55878489 8.71652962 -35.32522189 7.76358366 -30.8125 6.5 C-30.11141113 6.2935083 -29.41032227 6.0870166 -28.68798828 5.87426758 C-26.46388368 5.22893538 -24.23392902 4.61039751 -22 4 C-21.26797363 3.79810059 -20.53594727 3.59620117 -19.78173828 3.38818359 C-6.3771241 -0.26489592 -6.3771241 -0.26489592 0 0 Z " fill="#CFB163" transform="translate(204,19)"/>
<path d="M0 0 C0.66 0.66 1.32 1.32 2 2 C4.14574969 1.80144772 6.29133376 1.58943195 8.42680168 1.30056953 C12.7411356 0.79662185 17.04642734 0.86954592 21.38500977 0.88647461 C22.87927742 0.88625557 22.87927742 0.88625557 24.4037323 0.8860321 C27.66631315 0.88672366 30.92883549 0.89448031 34.19140625 0.90234375 C36.46540801 0.90421062 38.73941017 0.90563326 41.01341248 0.90663147 C46.97605515 0.91043543 52.93867317 0.92024748 58.90130615 0.93133545 C64.99474758 0.94159531 71.08819303 0.94613887 77.18164062 0.95117188 C89.12110454 0.96187176 101.06055021 0.97892254 113 1 C113 1.33 113 1.66 113 2 C111.87263931 2.00808685 110.74527863 2.01617371 109.58375549 2.02450562 C98.89031918 2.10243804 88.19700278 2.19029035 77.5037241 2.28752708 C72.0079602 2.33719152 66.51221281 2.38352082 61.01635742 2.421875 C55.6994253 2.45910912 50.38264229 2.50556499 45.06583977 2.55806351 C43.05079741 2.57640724 41.03572334 2.59158654 39.02063179 2.60334396 C23.07582499 2.69959026 7.66887547 3.81884602 -8 7 C-8.33 6.34 -8.66 5.68 -9 5 C-8.43410156 4.80664062 -7.86820313 4.61328125 -7.28515625 4.4140625 C-6.55167969 4.15367188 -5.81820312 3.89328125 -5.0625 3.625 C-3.96615234 3.24214844 -3.96615234 3.24214844 -2.84765625 2.8515625 C-0.81317884 2.14728587 -0.81317884 2.14728587 0 0 Z " fill="#CBA84E" transform="translate(204,18)"/>
<path d="M0 0 C0.66 0 1.32 0 2 0 C3.12559805 1.3984703 4.24982864 2.79806296 5.3671875 4.203125 C8.8687859 8.05655865 13.33133929 11.66566965 18 14 C18.42152344 14.73863281 18.84304687 15.47726562 19.27734375 16.23828125 C21.31438711 19.50401743 23.67723379 21.64800471 26.5625 24.1875 C27.53316406 25.04730469 28.50382812 25.90710938 29.50390625 26.79296875 C30.32761719 27.52128906 31.15132812 28.24960937 32 29 C32.66 29.66 33.32 30.32 34 31 C32.359375 31.76953125 32.359375 31.76953125 30 32 C27.203125 30.19921875 27.203125 30.19921875 24.25 27.6875 C23.26515625 26.86636719 22.2803125 26.04523437 21.265625 25.19921875 C20.51796875 24.47347656 19.7703125 23.74773438 19 23 C19 22.34 19 21.68 19 21 C18.41734375 20.7421875 17.8346875 20.484375 17.234375 20.21875 C14.8197097 18.90165983 13.18259823 17.44911616 11.25 15.5 C10.63640625 14.8915625 10.0228125 14.283125 9.390625 13.65625 C8 12 8 12 8 10 C7.01 9.67 6.02 9.34 5 9 C3.39453125 7.15234375 3.39453125 7.15234375 1.8125 4.9375 C1.28269531 4.20402344 0.75289063 3.47054687 0.20703125 2.71484375 C-0.19128906 2.14894531 -0.58960937 1.58304688 -1 1 C-0.67 0.67 -0.34 0.34 0 0 Z " fill="#DBC38C" transform="translate(73,526)"/>
<path d="M0 0 C2 2 2 2 3 5 C3.61488281 5.60585938 4.22976562 6.21171875 4.86328125 6.8359375 C7.25171013 9.25493129 8.61238615 11.6205412 10.1875 14.625 C10.69667969 15.58664062 11.20585938 16.54828125 11.73046875 17.5390625 C13.87523347 21.69660642 14.08783797 24.25674937 14 29 C14.66 29 15.32 29 16 29 C16.33 30.32 16.66 31.64 17 33 C13.75383391 31.64199764 12.30502655 30.41133314 10.5625 27.3671875 C10.14226563 26.64273437 9.72203125 25.91828125 9.2890625 25.171875 C8.86367188 24.41390625 8.43828125 23.6559375 8 22.875 C7.57460938 22.14023437 7.14921875 21.40546875 6.7109375 20.6484375 C5.44691358 18.44608907 4.21573337 16.22933751 3 14 C2.60006836 13.2687793 2.20013672 12.53755859 1.78808594 11.78417969 C1.41973633 11.08454102 1.05138672 10.38490234 0.671875 9.6640625 C0.1783252 8.73134521 0.1783252 8.73134521 -0.32519531 7.77978516 C-1.3784042 5.00196578 -0.83235239 2.77450797 0 0 Z " fill="#CCB370" transform="translate(43,475)"/>
<path d="M0 0 C0.66 0 1.32 0 2 0 C6.37912288 10.65972849 10.3544979 21.2663166 13 32.5 C13.20713623 33.3768042 13.41427246 34.2536084 13.62768555 35.15698242 C14.52450995 39.16081644 15.27087025 42.86922871 15 47 C14.01 47.495 14.01 47.495 13 48 C11.32983752 42.86703398 9.90763967 37.83732352 9.0625 32.5 C8.28338829 27.90259704 6.90896372 23.96407279 5.0859375 19.6875 C2.54186355 13.39137455 0 6.82405521 0 0 Z " fill="#CDB36C" transform="translate(593,148)"/>
<path d="M0 0 C2.475 0.99 2.475 0.99 5 2 C4.01 2.33 3.02 2.66 2 3 C2.11738263 10.79633966 2.24221761 18.59253407 2.37231445 26.38867188 C2.41571248 29.04261548 2.45738388 31.6965879 2.49731445 34.35058594 C2.55489925 38.15829158 2.6186275 41.96585155 2.68359375 45.7734375 C2.70030624 46.96617279 2.71701874 48.15890808 2.73423767 49.38778687 C2.75418289 50.48877716 2.77412811 51.58976746 2.79467773 52.72412109 C2.81799416 54.1830629 2.81799416 54.1830629 2.84178162 55.67147827 C2.85130651 58.02390474 2.85130651 58.02390474 4 60 C2.68 59.34 1.36 58.68 0 58 C0 38.86 0 19.72 0 0 Z " fill="#857344" transform="translate(328,148)"/>
<path d="M0 0 C0.33 0 0.66 0 1 0 C0.43302969 13.63563597 -3.82818558 26.1392291 -8.73046875 38.734375 C-9.53534307 40.80475942 -10.29755325 42.89265976 -11 45 C-11.99 45 -12.98 45 -14 45 C-12.36651329 39.1129786 -10.50523506 33.31223009 -8.625 27.5 C-6.07842794 19.58710608 -3.74873329 11.66777579 -1.7265625 3.60546875 C-1 1 -1 1 0 0 Z " fill="#D6BC77" transform="translate(606,429)"/>
<path d="M0 0 C0.99 0.33 1.98 0.66 3 1 C2.04956626 2.33897583 1.08940853 3.67105427 0.125 5 C-0.40867187 5.7425 -0.94234375 6.485 -1.4921875 7.25 C-2.23855469 8.11625 -2.23855469 8.11625 -3 9 C-3.66 9 -4.32 9 -5 9 C-5.33 9.99 -5.66 10.98 -6 12 C-6.66 12 -7.32 12 -8 12 C-8.21785156 12.56460938 -8.43570313 13.12921875 -8.66015625 13.7109375 C-10.43733464 16.74716647 -12.68871635 18.44203503 -15.4375 20.625 C-16.88962891 21.78902344 -16.88962891 21.78902344 -18.37109375 22.9765625 C-20.19874639 24.38328474 -22.08101319 25.72067546 -24 27 C-24 22.37565161 -21.12351229 20.21027652 -18 17 C-16.11061824 15.28421528 -14.18005332 13.62812665 -12.234375 11.9765625 C-7.95714802 8.19286171 -3.99937953 4.07313858 0 0 Z " fill="#D5BA72" transform="translate(554,531)"/>
<path d="M0 0 C0 3.65998231 -0.69240703 4.09168109 -3.125 6.6875 C-9.93971914 14.21237023 -15.44357323 22.51913809 -21 31 C-21.58910156 31.87527344 -22.17820312 32.75054687 -22.78515625 33.65234375 C-26.82421411 39.77073436 -30.16761327 46.09466819 -33.3359375 52.69433594 C-35.80509771 57.80509771 -35.80509771 57.80509771 -38 60 C-37.40553105 56.29447687 -36.35713585 53.38505149 -34.625 50.0625 C-34.17125 49.1859375 -33.7175 48.309375 -33.25 47.40625 C-32.8375 46.6121875 -32.425 45.818125 -32 45 C-31.54625 44.030625 -31.0925 43.06125 -30.625 42.0625 C-22.70986309 27.1455112 -11.977739 11.977739 0 0 Z " fill="#D2B56A" transform="translate(82,87)"/>
<path d="M0 0 C-1 3 -1 3 -3.1796875 4.16796875 C-4.06914062 4.50441406 -4.95859375 4.84085938 -5.875 5.1875 C-7.20144531 5.70376953 -7.20144531 5.70376953 -8.5546875 6.23046875 C-11 7 -11 7 -14 7 C-14 7.99 -14 8.98 -14 10 C-15.216875 10.350625 -16.43375 10.70125 -17.6875 11.0625 C-24.20117877 13.20597896 -30.0504996 16.64363578 -36 20 C-34.25886468 14.04348444 -30.63686307 12.6368782 -25.44140625 9.7734375 C-6.47577093 0 -6.47577093 0 0 0 Z " fill="#DBC587" transform="translate(162,31)"/>
<path d="M0 0 C3.814594 3.57282396 6.73363962 7.30525559 9.5 11.75 C9.88728271 12.36399658 10.27456543 12.97799316 10.67358398 13.6105957 C19 26.90462437 19 26.90462437 19 31 C18.34 31 17.68 31 17 31 C15.6207843 28.9610296 14.35823314 26.9374203 13.125 24.8125 C10.66976584 20.62553225 8.05083969 16.7807952 5 13 C4.06520815 11.46049105 3.16607508 9.8984802 2.3125 8.3125 C1.89613281 7.54550781 1.47976563 6.77851562 1.05078125 5.98828125 C0.35229821 4.66661631 -0.33146776 3.33706448 -1 2 C-0.67 1.34 -0.34 0.68 0 0 Z " fill="#D3BA70" transform="translate(566,100)"/>
<path d="M0 0 C3.19292186 1.46190727 5.80566134 3.26841375 8.5625 5.4375 C9.32691406 6.03433594 10.09132813 6.63117187 10.87890625 7.24609375 C12.70484725 8.75594183 14.32789629 10.32789629 16 12 C19.86703248 15.1863189 23.74716817 18.2585281 28.0625 20.8125 C28.701875 21.204375 29.34125 21.59625 30 22 C30 22.66 30 23.32 30 24 C30.99 24 31.98 24 33 24 C33 24.66 33 25.32 33 26 C33.598125 26.103125 34.19625 26.20625 34.8125 26.3125 C37.29983964 27.09423531 38.24696028 28.1264074 40 30 C34.61774638 28.45216236 30.06345609 27.06345609 26 23 C26 22.34 26 21.68 26 21 C25.43796875 20.86722656 24.8759375 20.73445312 24.296875 20.59765625 C21.90633847 19.97562889 19.58964225 19.22884959 17.25 18.4375 C16.45078125 18.16808594 15.6515625 17.89867187 14.828125 17.62109375 C14.22484375 17.41613281 13.6215625 17.21117187 13 17 C13 15.68 13 14.36 13 13 C11.82757392 11.385126 11.82757392 11.385126 10.15625 10.01953125 C9.56972656 9.49552734 8.98320313 8.97152344 8.37890625 8.43164062 C7.75886719 7.89732422 7.13882813 7.36300781 6.5 6.8125 C4.31746757 4.89087321 2.15309792 2.95494193 0 1 C0 0.67 0 0.34 0 0 Z " fill="#D0B46A" transform="translate(91,542)"/>
<path d="M0 0 C0.99 0.66 1.98 1.32 3 2 C1.38656691 6.33298268 -0.69352966 10.37055809 -2.875 14.4375 C-3.21402344 15.08009766 -3.55304687 15.72269531 -3.90234375 16.38476562 C-9.91118387 27.63706129 -9.91118387 27.63706129 -14 29 C-13.2964009 25.11118874 -11.51248274 22.0069569 -9.625 18.5625 C-9.01914062 17.45003906 -8.41328125 16.33757812 -7.7890625 15.19140625 C-6.6834706 13.21920411 -5.55170212 11.26111868 -4.37890625 9.328125 C-3.18219617 7.30761734 -2.20472515 5.35433251 -1.3125 3.1875 C-0.879375 2.135625 -0.44625 1.08375 0 0 Z " fill="#D2B66E" transform="translate(590,475)"/>
<path d="M0 0 C0.33 0 0.66 0 1 0 C1.21841606 5.81229395 0.93660935 10.97825875 -0.48828125 16.6171875 C-1.43404847 21.02114172 -1.68135692 25.5138409 -2 30 C-2.66 30 -3.32 30 -4 30 C-4 30.99 -4 31.98 -4 33 C-4.66 32.67 -5.32 32.34 -6 32 C-3.41165173 3.41165173 -3.41165173 3.41165173 0 0 Z " fill="#DECA91" transform="translate(28,187)"/>
<path d="M0 0 C-2.23656263 3.35484394 -3.03675162 3.65995975 -6.69140625 4.97265625 C-7.63693359 5.31490234 -8.58246094 5.65714844 -9.55664062 6.00976562 C-10.54857422 6.35716797 -11.54050781 6.70457031 -12.5625 7.0625 C-14.00979492 7.5894043 -14.00979492 7.5894043 -15.48632812 8.12695312 C-21.27645465 10.19513471 -26.97019289 11.79901675 -33 13 C-33.33 12.34 -33.66 11.68 -34 11 C-28.46221785 8.72245703 -22.92952575 6.61670788 -17.2265625 4.79296875 C-14.83760027 3.9421629 -12.60102805 2.90318645 -10.3125 1.8125 C-6.73155566 0.16023972 -3.99598305 -0.40984442 0 0 Z " fill="#D9C180" transform="translate(482,586)"/>
<path d="M0 0 C8.6039876 0.61457054 16.68798501 2.81979935 25 5 C26.33271376 5.33580189 27.6656639 5.67070369 29 6 C29 6.66 29 7.32 29 8 C22.34195591 8.25940432 16.92013555 7.48408344 10.5625 5.5625 C9.36077148 5.21735352 9.36077148 5.21735352 8.13476562 4.86523438 C2.39251132 3.19625566 2.39251132 3.19625566 0 2 C0 1.34 0 0.68 0 0 Z " fill="#CDB46F" transform="translate(430,19)"/>
<path d="M0 0 C-1.45645073 4.24473609 -3.5914138 7.38408155 -6.3125 10.9375 C-7.11171875 11.98292969 -7.9109375 13.02835938 -8.734375 14.10546875 C-11.0988826 17.12633105 -13.49705837 20.0933581 -16 23 C-17.32 22.67 -18.64 22.34 -20 22 C-19.34773437 21.23816406 -18.69546875 20.47632813 -18.0234375 19.69140625 C-13.36774031 14.20598967 -8.95679571 8.77622563 -5.15625 2.64453125 C-3.62797842 0.47087471 -2.65256743 0 0 0 Z " fill="#CCB16C" transform="translate(577,505)"/>
<path d="M0 0 C0.66 0 1.32 0 2 0 C1.65985423 6.2360058 0.33253187 11.95579258 -1.375 17.9375 C-1.58406982 18.69538818 -1.79313965 19.45327637 -2.00854492 20.23413086 C-3.63920805 25.75947203 -3.63920805 25.75947203 -7 28 C-7.18194291 23.36045575 -6.85437682 20.22385832 -5 16 C-4.51970586 14.04680384 -4.04009612 12.09340369 -3.57421875 10.13671875 C-2.63846699 6.65470371 -1.31766191 3.3540485 0 0 Z " fill="#E0CD92" transform="translate(35,158)"/>
<path d="M0 0 C2.05965132 3.08947698 2.32480807 4.22365733 2.6328125 7.7890625 C2.71660156 8.73136719 2.80039062 9.67367187 2.88671875 10.64453125 C2.96535156 11.62808594 3.04398438 12.61164063 3.125 13.625 C3.21136719 14.58535156 3.29773438 15.54570312 3.38671875 16.53515625 C3.88624595 22.37883163 4.08463689 28.13587237 4 34 C3.01 33.67 2.02 33.34 1 33 C0.66285491 28.79196298 0.33095755 24.58352782 0 20.375 C-0.09539063 19.18519531 -0.19078125 17.99539062 -0.2890625 16.76953125 C-0.37929688 15.61582031 -0.46953125 14.46210938 -0.5625 13.2734375 C-0.64628906 12.21560059 -0.73007812 11.15776367 -0.81640625 10.06787109 C-0.99820265 7.03003383 -1.10234594 4.04201058 -1 1 C-0.67 0.67 -0.34 0.34 0 0 Z " fill="#CFB56E" transform="translate(608,196)"/>
<path d="M0 0 C0.77988281 0.12117188 1.55976563 0.24234375 2.36328125 0.3671875 C3.15089844 0.47289062 3.93851563 0.57859375 4.75 0.6875 C5.38550781 0.87054688 6.02101562 1.05359375 6.67578125 1.2421875 C7.00578125 1.9021875 7.33578125 2.5621875 7.67578125 3.2421875 C4.69726562 3.09570312 4.69726562 3.09570312 1.71875 2.94921875 C-1.00053462 3.33917352 -1.67231459 4.05956031 -3.32421875 6.2421875 C-3.83029235 9.0450604 -3.83029235 9.0450604 -3.8359375 12.22265625 C-3.88911133 13.96772461 -3.88911133 13.96772461 -3.94335938 15.74804688 C-3.96591797 16.96298828 -3.98847656 18.17792969 -4.01171875 19.4296875 C-4.04587891 20.65623047 -4.08003906 21.88277344 -4.11523438 23.14648438 C-4.19781285 26.17829428 -4.26693244 29.20981129 -4.32421875 32.2421875 C-8.03092503 28.53548122 -6.6938654 22.37256745 -6.69921875 17.3671875 C-6.72371094 16.16964844 -6.74820313 14.97210938 -6.7734375 13.73828125 C-6.77730469 12.58714844 -6.78117188 11.43601562 -6.78515625 10.25 C-6.79337402 9.19441895 -6.8015918 8.13883789 -6.81005859 7.05126953 C-6.11268509 3.019119 -4.2053439 0.4382039 0 0 Z " fill="#2E2D29" transform="translate(219.32421875,334.7578125)"/>
<path d="M0 0 C5.30081339 0.56158488 9.71682735 1.82992806 14.625 3.875 C15.26695312 4.13152344 15.90890625 4.38804688 16.5703125 4.65234375 C20.24430956 6.15055157 23.74481187 7.71762672 27 10 C27 10.66 27 11.32 27 12 C21.98895366 11.5824128 18.48409025 10.42346522 14.06640625 8.0546875 C10.81630298 6.39584462 7.43368674 5.22631669 4 4 C4 3.34 4 2.68 4 2 C2.68 1.67 1.36 1.34 0 1 C0 0.67 0 0.34 0 0 Z " fill="#D6BB76" transform="translate(466,29)"/>
<path d="M0 0 C1.32 0.33 2.64 0.66 4 1 C4.25394531 2.05058594 4.50789063 3.10117187 4.76953125 4.18359375 C6.5735804 11.56859029 8.44014513 18.83240636 11 26 C10.01 26.66 9.02 27.32 8 28 C4.29932965 18.88611503 2.11023541 9.57463196 0 0 Z " fill="#E1CE9A" transform="translate(27,436)"/>
<path d="M0 0 C3.33980382 0.58593049 6.2614127 1.41716614 9.375 2.75 C22.36255396 8.02918246 35.26486196 11.35350946 49 14 C49 14.33 49 14.66 49 15 C32.70183086 14.71587978 13.74269005 10.07820036 0 1 C0 0.67 0 0.34 0 0 Z " fill="#CFB05E" transform="translate(153,583)"/>
<path d="M0 0 C2.0625 0.4375 2.0625 0.4375 4 1 C2.41956953 8.48425008 0.38678913 15.7656683 -1.7890625 23.09570312 C-3.51702856 29.01704135 -4.8906797 34.93218108 -6 41 C-6.33 41 -6.66 41 -7 41 C-7.16873478 39.56274129 -7.33490737 38.12518162 -7.5 36.6875 C-7.5928125 35.88699219 -7.685625 35.08648437 -7.78125 34.26171875 C-8 32 -8 32 -8 29 C-7.54753906 28.59007812 -7.09507813 28.18015625 -6.62890625 27.7578125 C-4.19081315 25.12677678 -3.79873074 22.3268965 -2.9375 18.875 C-2.76831055 18.20718506 -2.59912109 17.53937012 -2.42480469 16.85131836 C-1.18741592 11.92143277 -0.04704222 6.97345053 1 2 C0.34 1.67 -0.32 1.34 -1 1 C-0.67 0.67 -0.34 0.34 0 0 Z " fill="#D0B46C" transform="translate(36,156)"/>
<path d="M0 0 C7.34812412 0.85443304 10.93192469 3.79494968 16 9 C16.66 9.33 17.32 9.66 18 10 C17.67 10.99 17.34 11.98 17 13 C2.69565217 5.39130435 2.69565217 5.39130435 0 0 Z " fill="#D8C687" transform="translate(106,559)"/>
<path d="M0 0 C0.33 0 0.66 0 1 0 C0.8608331 3.41697238 0.71250415 6.83348757 0.5625 10.25 C0.52318359 11.21808594 0.48386719 12.18617188 0.44335938 13.18359375 C0.40146484 14.11816406 0.35957031 15.05273438 0.31640625 16.015625 C0.27974854 16.87446289 0.24309082 17.73330078 0.20532227 18.61816406 C0.01296486 20.84960143 -0.38846244 22.84982524 -1 25 C-1.66 25 -2.32 25 -3 25 C-2.89047884 21.20771856 -2.75976759 17.4164616 -2.625 13.625 C-2.5940625 12.54476563 -2.563125 11.46453125 -2.53125 10.3515625 C-2.49257813 9.3203125 -2.45390625 8.2890625 -2.4140625 7.2265625 C-2.3826416 6.27346191 -2.3512207 5.32036133 -2.31884766 4.33837891 C-2 2 -2 2 0 0 Z " fill="#D0B66E" transform="translate(610,401)"/>
<path d="M0 0 C0.66 0 1.32 0 2 0 C3.15376718 1.39130748 4.30284871 2.78681369 5.42578125 4.203125 C7.83853773 6.95713984 10.62338074 9.23547408 13.42578125 11.58203125 C13.94527344 12.04996094 14.46476562 12.51789062 15 13 C15 13.33 15 13.66 15 14 C13.35 14 11.7 14 10 14 C9.5978125 13.0409375 9.5978125 13.0409375 9.1875 12.0625 C8.11332248 9.66868314 8.11332248 9.66868314 5 9 C3.39453125 7.15234375 3.39453125 7.15234375 1.8125 4.9375 C1.28269531 4.20402344 0.75289063 3.47054687 0.20703125 2.71484375 C-0.19128906 2.14894531 -0.58960937 1.58304688 -1 1 C-0.67 0.67 -0.34 0.34 0 0 Z " fill="#E0CD8A" transform="translate(73,526)"/>
<path d="M0 0 C3.82524236 1.450954 5.19090966 3.38181932 7 7 C7 7.66 7 8.32 7 9 C7.66 9 8.32 9 9 9 C9 10.65 9 12.3 9 14 C9.66 14 10.32 14 11 14 C11.33 15.32 11.66 16.64 12 18 C7.46510665 16.52922378 5.88995913 12.94703573 3.75 9 C3.38648438 8.35804688 3.02296875 7.71609375 2.6484375 7.0546875 C0 2.29546523 0 2.29546523 0 0 Z " fill="#DFCA93" transform="translate(48,490)"/>
<path d="M0 0 C1.7074998 1.28062485 3.37373596 2.61767557 5 4 C5 4.66 5 5.32 5 6 C5.99 6.33 6.98 6.66 8 7 C9.82421875 8.84765625 9.82421875 8.84765625 11.6875 11.0625 C12.31011719 11.79597656 12.93273437 12.52945313 13.57421875 13.28515625 C14.27998047 14.13400391 14.27998047 14.13400391 15 15 C14.67 15.66 14.34 16.32 14 17 C11.99388266 15.21479439 9.9951283 13.42241288 8 11.625 C7.42765625 11.11710938 6.8553125 10.60921875 6.265625 10.0859375 C4.80558723 8.76495095 3.39847843 7.38599201 2 6 C2 5.34 2 4.68 2 4 C0.68 4.33 -0.64 4.66 -2 5 C-2 4.01 -2 3.02 -2 2 C-1.34 2 -0.68 2 0 2 C0 1.34 0 0.68 0 0 Z " fill="#D4B970" transform="translate(73,522)"/>
<path d="M0 0 C5.00113594 1.48008696 9.32915597 3.6318336 13.875 6.125 C14.56335938 6.49753906 15.25171875 6.87007812 15.9609375 7.25390625 C17.64294798 8.16499526 19.32180436 9.08190315 21 10 C19 11 19 11 15.625 10 C12.31640915 9.08728528 11.07645778 8.76941689 8 10 C7.34 9.01 6.68 8.02 6 7 C6.66 6.67 7.32 6.34 8 6 C5.36 4.68 2.72 3.36 0 2 C0 1.34 0 0.68 0 0 Z " fill="#CEB36D" transform="translate(131,572)"/>
<path d="M0 0 C0.66 0.66 1.32 1.32 2 2 C4.91952568 1.98251781 7.72297885 1.86055367 10.625 1.625 C11.42679688 1.56828125 12.22859375 1.5115625 13.0546875 1.453125 C15.03715498 1.31152018 17.01869051 1.15697741 19 1 C19 1.33 19 1.66 19 2 C5.635 4.475 5.635 4.475 -8 7 C-8.33 6.34 -8.66 5.68 -9 5 C-8.43410156 4.80664062 -7.86820313 4.61328125 -7.28515625 4.4140625 C-6.55167969 4.15367188 -5.81820312 3.89328125 -5.0625 3.625 C-3.96615234 3.24214844 -3.96615234 3.24214844 -2.84765625 2.8515625 C-0.81317884 2.14728587 -0.81317884 2.14728587 0 0 Z " fill="#CCAE60" transform="translate(204,18)"/>
<path d="M0 0 C5 1.66666667 10 3.33333333 15 5 C14.01 6.485 14.01 6.485 13 8 C11.20275237 7.63033201 9.41214422 7.2282752 7.625 6.8125 C6.62726563 6.59207031 5.62953125 6.37164063 4.6015625 6.14453125 C2 5 2 5 0.6484375 2.38671875 C0.43445313 1.59910156 0.22046875 0.81148437 0 0 Z " fill="#D3B77D" transform="translate(162,588)"/>
<path d="M0 0 C3 1 3 1 3.984375 2.92578125 C4.23703125 3.71339844 4.4896875 4.50101562 4.75 5.3125 C5.01296875 6.09238281 5.2759375 6.87226563 5.546875 7.67578125 C6.03298902 10.16921091 5.80665429 11.6181897 5 14 C4.01 13.67 3.02 13.34 2 13 C1.26953125 11.07421875 1.26953125 11.07421875 0.8125 8.6875 C0.65394531 7.90761719 0.49539062 7.12773437 0.33203125 6.32421875 C0 4 0 4 0 0 Z " fill="#DDC286" transform="translate(25,423)"/>
<path d="M0 0 C3 1 3 1 4.60546875 3.94140625 C5.12753906 5.13636719 5.64960937 6.33132812 6.1875 7.5625 C6.71730469 8.76003906 7.24710938 9.95757812 7.79296875 11.19140625 C8.19128906 12.11824219 8.58960938 13.04507813 9 14 C8.01 14.33 7.02 14.66 6 15 C2.47086025 9.98627748 0.38528505 6.16456078 0 0 Z " fill="#D5BB6E" transform="translate(585,132)"/>
<path d="M0 0 C-2.94222248 2.94222248 -6.55837814 3.25124146 -10.5 4.125 C-11.28503906 4.30675781 -12.07007813 4.48851562 -12.87890625 4.67578125 C-18.68356438 6 -18.68356438 6 -21 6 C-21 5.34 -21 4.68 -21 4 C-7.55125285 -0.59225513 -7.55125285 -0.59225513 0 0 Z " fill="#E0CE8A" transform="translate(193,22)"/>
<path d="M0 0 C0.33 0.99 0.66 1.98 1 3 C-0.78673205 4.5058745 -2.57953508 6.0045485 -4.375 7.5 C-5.37273437 8.3353125 -6.37046875 9.170625 -7.3984375 10.03125 C-10 12 -10 12 -12 12 C-11.71855013 8.79580145 -10.99711793 7.99753608 -8.49609375 5.859375 C-7.48675781 5.16328125 -6.47742188 4.4671875 -5.4375 3.75 C-4.42558594 3.04359375 -3.41367188 2.3371875 -2.37109375 1.609375 C-1.58863281 1.07828125 -0.80617188 0.5471875 0 0 Z " fill="#D6C38D" transform="translate(121,50)"/>
<path d="M0 0 C0.99 0.66 1.98 1.32 3 2 C1.31326082 6.49797113 -0.81673892 10.72886302 -3 15 C-3.99 14.67 -4.98 14.34 -6 14 C-5.19074658 11.85294019 -4.37750887 9.7073817 -3.5625 7.5625 C-3.11003906 6.36753906 -2.65757812 5.17257812 -2.19140625 3.94140625 C-1 1 -1 1 0 0 Z " fill="#D6BC75" transform="translate(590,475)"/>
<path d="M0 0 C0.66 0.66 1.32 1.32 2 2 C-3.445 5.96 -3.445 5.96 -9 10 C-9.33 8.68 -9.66 7.36 -10 6 C-6.80009492 3.25722422 -3.99500618 1.3697164 0 0 Z " fill="#D9BC7B" transform="translate(522,561)"/>
<path d="M0 0 C0.66 0.33 1.32 0.66 2 1 C0.625 3 0.625 3 -1 5 C-1.66 5 -2.32 5 -3 5 C-3.2784375 6.11375 -3.2784375 6.11375 -3.5625 7.25 C-5.63809824 11.22070968 -7.96326521 12.1258017 -12 14 C-12.66 13.67 -13.32 13.34 -14 13 C-13.38511719 12.55269531 -12.77023438 12.10539062 -12.13671875 11.64453125 C-7.84686453 8.43569292 -4.44218029 5.88436058 -2 1 C-1.34 0.67 -0.68 0.34 0 0 Z " fill="#CBB371" transform="translate(126,47)"/>
<path d="M0 0 C5.28 0.66 10.56 1.32 16 2 C16 2.66 16 3.32 16 4 C10.21408489 4.10477512 4.70690634 3.99250545 -1 3 C-0.67 2.01 -0.34 1.02 0 0 Z " fill="#CDB479" transform="translate(413,16)"/>
<path d="M0 0 C2.49858542 2.49858542 3.70966476 4.70964513 5 8 C4.1875 10.875 4.1875 10.875 3 13 C-0.14789274 9.57837746 -0.66086799 6.5782822 -1 2 C-0.67 1.34 -0.34 0.68 0 0 Z " fill="#E0CB97" transform="translate(38,463)"/>
<path d="M0 0 C1.48165503 2.96331006 0.48358108 4.89704017 -0.3125 8.0625 C-0.57675781 9.14660156 -0.84101562 10.23070312 -1.11328125 11.34765625 C-2 14 -2 14 -4 15 C-4 14.34 -4 13.68 -4 13 C-4.66 12.67 -5.32 12.34 -6 12 C-5.37853192 10.56096954 -4.75267941 9.12383207 -4.125 7.6875 C-3.77695312 6.88699219 -3.42890625 6.08648437 -3.0703125 5.26171875 C-2 3 -2 3 0 0 Z " fill="#E0CA92" transform="translate(42,143)"/>
<path d="M0 0 C2.05123248 2.05123248 2.64147118 3.27005063 3.625 5.9375 C3.88539062 6.62714844 4.14578125 7.31679688 4.4140625 8.02734375 C5 10 5 10 5 13 C2 12 2 12 0.25 9.3125 C-1.14124787 5.62569316 -0.98410592 3.75749535 0 0 Z " fill="#DEC98B" transform="translate(43,475)"/>
<path d="M0 0 C0.33 0 0.66 0 1 0 C1.06058594 1.31355469 1.12117187 2.62710937 1.18359375 3.98046875 C1.26803256 5.71615541 1.35267888 7.45183198 1.4375 9.1875 C1.47681641 10.05181641 1.51613281 10.91613281 1.55664062 11.80664062 C1.76347016 15.95914122 2.00103531 19.94537862 3 24 C2.01 23.67 1.02 23.34 0 23 C-1.41722796 15.2839811 -0.65647386 7.75649113 0 0 Z " fill="#857956" transform="translate(130,389)"/>
<path d="M0 0 C-0.33 0.99 -0.66 1.98 -1 3 C-5.29 3 -9.58 3 -14 3 C-14.33 2.34 -14.66 1.68 -15 1 C-9.9752761 0.37470103 -5.07471573 -0.13012092 0 0 Z " fill="#D7BF80" transform="translate(419,602)"/>
<path d="M0 0 C1.8871875 0.0309375 1.8871875 0.0309375 3.8125 0.0625 C1.58327045 2.29172955 -0.27885278 2.94378953 -3.1875 4.0625 C-3.5175 4.3925 -3.8475 4.7225 -4.1875 5.0625 C-6.18708364 5.10330783 -8.18795254 5.10504356 -10.1875 5.0625 C-7.29994867 0.79992422 -5.07715232 -0.08323201 0 0 Z " fill="#DABB7C" transform="translate(173.1875,26.9375)"/>
<path d="M0 0 C-0.33 0.99 -0.66 1.98 -1 3 C-4.63 3.66 -8.26 4.32 -12 5 C-12.33 4.34 -12.66 3.68 -13 3 C-8.37802694 0.78145293 -5.23175837 -0.38281159 0 0 Z " fill="#DEC874" transform="translate(438,599)"/>
<path d="M0 0 C3.40312738 1.05875074 6.01353231 2.00902154 9 4 C9 4.66 9 5.32 9 6 C10.4540625 6.433125 10.4540625 6.433125 11.9375 6.875 C15 8 15 8 16 10 C13.03 9.01 10.06 8.02 7 7 C7 6.34 7 5.68 7 5 C6.01 5 5.02 5 4 5 C4 4.34 4 3.68 4 3 C3.01 3 2.02 3 1 3 C0.67 2.01 0.34 1.02 0 0 Z " fill="#7D704D" transform="translate(245,481)"/>
<path d="M0 0 C8.7595092 -0.44539877 8.7595092 -0.44539877 13 3 C13 3.66 13 4.32 13 5 C8.02693484 4.50269348 4.36200187 3.44697666 0 1 C0 0.67 0 0.34 0 0 Z " fill="#D8B570" transform="translate(480,36)"/>
<path d="M0 0 C1.43791516 0.14168137 2.8753237 0.28851043 4.3125 0.4375 C5.11300781 0.51871094 5.91351563 0.59992187 6.73828125 0.68359375 C9 1 9 1 12 2 C12 2.66 12 3.32 12 4 C7.45194365 4.17835515 4.1205746 3.99785435 0 2 C0 1.34 0 0.68 0 0 Z " fill="#D8C07A" transform="translate(430,19)"/>
<path d="M0 0 C0.66 0.33 1.32 0.66 2 1 C-0.31537955 4.72114571 -2.28579473 7.61229661 -6 10 C-6.66 9.01 -7.32 8.02 -8 7 C-5.36 4.69 -2.72 2.38 0 0 Z " fill="#C5AB66" transform="translate(530,553)"/>
<path d="M0 0 C0.66 0 1.32 0 2 0 C7 5.47619048 7 5.47619048 7 8 C7.66 8.33 8.32 8.66 9 9 C5.85669777 8.6507442 4.20508548 8.16074267 1.6875 6.1875 C0 4 0 4 0 0 Z " fill="#D0B774" transform="translate(550,82)"/>
<path d="M0 0 C5.70044226 2.25953144 11.37643369 4.55497117 17 7 C17 7.33 17 7.66 17 8 C15.02 8 13.04 8 11 8 C11 7.34 11 6.68 11 6 C9.68 6 8.36 6 7 6 C7 5.34 7 4.68 7 4 C4.69 3.34 2.38 2.68 0 2 C0 1.34 0 0.68 0 0 Z " fill="#948151" transform="translate(273,498)"/>
<path d="M0 0 C2 1 2 1 2.6328125 2.84765625 C2.79523437 3.57855469 2.95765625 4.30945313 3.125 5.0625 C3.29257812 5.79597656 3.46015625 6.52945312 3.6328125 7.28515625 C3.75398438 7.85105469 3.87515625 8.41695313 4 9 C3.01 9.66 2.02 10.32 1 11 C0.63743142 9.5437328 0.28520207 8.08488815 -0.0625 6.625 C-0.35833984 5.40683594 -0.35833984 5.40683594 -0.66015625 4.1640625 C-1 2 -1 2 0 0 Z " fill="#DEC889" transform="translate(34,453)"/>
<path d="M0 0 C0.66 0 1.32 0 2 0 C1.56802365 4.7517398 0.67230705 6.92000054 -3 10 C-3.75 8.375 -3.75 8.375 -4 6 C-2.1875 2.75 -2.1875 2.75 0 0 Z " fill="#D4BF84" transform="translate(56,116)"/>
<path d="M0 0 C0.33 0 0.66 0 1 0 C1 6.27 1 12.54 1 19 C0.01 18.34 -0.98 17.68 -2 17 C-1.34 11.39 -0.68 5.78 0 0 Z " fill="#C7A95D" transform="translate(607,413)"/>
<path d="M0 0 C3.0831351 1.19899698 6.06279492 2.47700477 9 4 C9 4.66 9 5.32 9 6 C6.69 5.67 4.38 5.34 2 5 C1.34 3.35 0.68 1.7 0 0 Z " fill="#DDC278" transform="translate(494,40)"/>
<path d="M0 0 C5.53846154 0.49230769 5.53846154 0.49230769 7.875 3.0625 C8.431875 4.0215625 8.431875 4.0215625 9 5 C8.01 5.33 7.02 5.66 6 6 C2.8125 3.625 2.8125 3.625 0 1 C0 0.67 0 0.34 0 0 Z " fill="#E4D096" transform="translate(106,559)"/>
<path d="M0 0 C0.33 0 0.66 0 1 0 C0.67 3.63 0.34 7.26 0 11 C-0.99 11 -1.98 11 -3 11 C-2.69217504 9.35328588 -2.37860766 7.70764424 -2.0625 6.0625 C-1.88847656 5.14597656 -1.71445312 4.22945313 -1.53515625 3.28515625 C-1 1 -1 1 0 0 Z " fill="#D2B66D" transform="translate(606,429)"/>
<path d="M0 0 C6.13062246 -0.50045898 9.06840864 0.61557456 14 4 C14.99 5.485 14.99 5.485 16 7 C13.97954558 6.39816251 11.97888961 5.72693904 10 5 C9.67 4.34 9.34 3.68 9 3 C6.88153715 2.31270746 6.88153715 2.31270746 4.4375 1.875 C3.61121094 1.70742188 2.78492188 1.53984375 1.93359375 1.3671875 C1.29550781 1.24601562 0.65742188 1.12484375 0 1 C0 0.67 0 0.34 0 0 Z " fill="#988553" transform="translate(217,334)"/>
<path d="M0 0 C-1.55603771 3.81936528 -3.95604931 6.26044438 -7 9 C-7.66 9 -8.32 9 -9 9 C-7.45665977 5.21180126 -4.44676575 0 0 0 Z " fill="#21211E" transform="translate(311,121)"/>
<path d="M0 0 C2.96404505 2.80804268 5.44499019 5.18315774 7 9 C6.01 9.495 6.01 9.495 5 10 C2.38499232 7.63404067 0.61000397 5.13950774 -1 2 C-0.67 1.34 -0.34 0.68 0 0 Z " fill="#DCC077" transform="translate(566,100)"/>
<path d="M0 0 C-1.97420135 2.52259061 -2.96745642 2.9929808 -6.1875 3.6875 C-7.5796875 3.8421875 -7.5796875 3.8421875 -9 4 C-9 3.01 -9 2.02 -9 1 C-5.8035914 -0.06546953 -3.34252724 -0.07427838 0 0 Z " fill="#DFC58D" transform="translate(204,19)"/>
<path d="M0 0 C0.66 0.99 1.32 1.98 2 3 C1.125 6.1875 1.125 6.1875 0 9 C-0.99 9 -1.98 9 -3 9 C-2.44271087 5.65626525 -1.64826111 2.96687001 0 0 Z " fill="#CEB163" transform="translate(584,487)"/>
<path d="M0 0 C0 0.66 0 1.32 0 2 C-0.99 2 -1.98 2 -3 2 C-3.226875 2.598125 -3.45375 3.19625 -3.6875 3.8125 C-5.33811133 6.56351888 -7.1972081 7.52484637 -10 9 C-8.5124715 4.98367305 -4.56813239 0 0 0 Z " fill="#292823" transform="translate(143,199)"/>
<path d="M0 0 C0 0.66 0 1.32 0 2 C-2.97 3.65 -5.94 5.3 -9 7 C-7.20098245 1.74133331 -5.88456942 0 0 0 Z " fill="#DECA93" transform="translate(135,44)"/>
<path d="M0 0 C0.33 0.66 0.66 1.32 1 2 C-1.48387097 8.74193548 -1.48387097 8.74193548 -4 10 C-4.25 7.25 -4.25 7.25 -4 4 C-2 1.625 -2 1.625 0 0 Z " fill="#DBC68B" transform="translate(32,176)"/>
<path d="M0 0 C1.98 0 3.96 0 6 0 C2.8745041 2.64465038 -0.08788267 3.84414715 -4 5 C-4.66 4.34 -5.32 3.68 -6 3 C-4.02 2.67 -2.04 2.34 0 2 C0 1.34 0 0.68 0 0 Z " fill="#D7BD78" transform="translate(494,578)"/>
<path d="M0 0 C2.26185454 2.26185454 3.03921617 3.96983561 4 7 C3.67 7.99 3.34 8.98 3 10 C2.01 8.68 1.02 7.36 0 6 C-0.99 6.495 -0.99 6.495 -2 7 C-1.125 2.25 -1.125 2.25 0 0 Z " fill="#CBB16F" transform="translate(43,471)"/>
<path d="M0 0 C0.66 0 1.32 0 2 0 C4.09230769 4.43076923 4.09230769 4.43076923 3.625 7.3125 C3.41875 7.869375 3.2125 8.42625 3 9 C2.01 8.34 1.02 7.68 0 7 C-0.1875 3.375 -0.1875 3.375 0 0 Z " fill="#DAC375" transform="translate(599,164)"/>
<path d="M0 0 C0.66 0.33 1.32 0.66 2 1 C0.35 2.98 -1.3 4.96 -3 7 C-4.32 6.67 -5.64 6.34 -7 6 C-4.69 4.02 -2.38 2.04 0 0 Z " fill="#D9BE78" transform="translate(564,521)"/>
<path d="M0 0 C3.16115776 1.36983503 3.9927092 1.9890638 6 5 C6 5.99 6 6.98 6 8 C2.24623848 6.74874616 1.75926711 5.4347596 0 2 C0 1.34 0 0.68 0 0 Z " fill="#DFCF92" transform="translate(61,511)"/>
<path d="M0 0 C0.66 0 1.32 0 2 0 C3.25664978 2.90600261 4 4.79604584 4 8 C3.01 8 2.02 8 1 8 C0.67 5.36 0.34 2.72 0 0 Z " fill="#D6BC77" transform="translate(593,148)"/>
<path d="M0 0 C0.66 0.33 1.32 0.66 2 1 C1.67 1.33 1.34 1.66 1 2 C2.32 2.66 3.64 3.32 5 4 C0.56923077 6.09230769 0.56923077 6.09230769 -2.3125 5.625 C-2.869375 5.41875 -3.42625 5.2125 -4 5 C-3.01 4.01 -2.02 3.02 -1 2 C-1.66 1.67 -2.32 1.34 -3 1 C-2.01 0.67 -1.02 0.34 0 0 Z " fill="#C6AD67" transform="translate(163,29)"/>
<path d="M0 0 C0 0.66 0 1.32 0 2 C-1.98 2.99 -1.98 2.99 -4 4 C-4 4.66 -4 5.32 -4 6 C-5.65 5.67 -7.3 5.34 -9 5 C-6.6475912 1.47138681 -4.32053307 0 0 0 Z " fill="#D0B163" transform="translate(494,578)"/>
<path d="M0 0 C4.55737263 0.43820891 7.57653445 0.85041169 11 4 C8 5 8 5 5.95703125 4.22265625 C5.24933594 3.83980469 4.54164063 3.45695312 3.8125 3.0625 C3.09707031 2.68222656 2.38164062 2.30195312 1.64453125 1.91015625 C1.10183594 1.60980469 0.55914062 1.30945312 0 1 C0 0.67 0 0.34 0 0 Z " fill="#DCBA84" transform="translate(474,32)"/>
<path d="M0 0 C1.32 0 2.64 0 4 0 C4 0.66 4 1.32 4 2 C5.32 2.33 6.64 2.66 8 3 C4.23375329 4.25541557 2.62811066 3.37061958 -1 2 C-0.67 1.34 -0.34 0.68 0 0 Z " fill="#E1C692" transform="translate(176,594)"/>
<path d="M0 0 C1.65 1.32 3.3 2.64 5 4 C4.67 4.66 4.34 5.32 4 6 C3.38125 5.835 2.7625 5.67 2.125 5.5 C0.03936614 4.92365356 0.03936614 4.92365356 -2 5 C-2 4.01 -2 3.02 -2 2 C-1.34 2 -0.68 2 0 2 C0 1.34 0 0.68 0 0 Z " fill="#CBB273" transform="translate(73,522)"/>
<path d="M0 0 C4.43090471 1.20842856 6.98112756 2.51668565 10 6 C7.69 5.34 5.38 4.68 3 4 C3 3.34 3 2.68 3 2 C2.01 2 1.02 2 0 2 C0 1.34 0 0.68 0 0 Z " fill="#847650" transform="translate(360,262)"/>
<path d="M0 0 C0 1.32 0 2.64 0 4 C-0.99 4.33 -1.98 4.66 -3 5 C-3 4.34 -3 3.68 -3 3 C-4.32 3.33 -5.64 3.66 -7 4 C-3.17391304 0 -3.17391304 0 0 0 Z " fill="#C4AB63" transform="translate(512,568)"/>
<path d="M0 0 C0.66 0.66 1.32 1.32 2 2 C1.34 2 0.68 2 0 2 C-0.33 2.99 -0.66 3.98 -1 5 C-1.66 5 -2.32 5 -3 5 C-3.33 5.99 -3.66 6.98 -4 8 C-4.66 7.34 -5.32 6.68 -6 6 C-4.02 4.02 -2.04 2.04 0 0 Z " fill="#E1CF94" transform="translate(549,538)"/>
<path d="M0 0 C1.0625 1.875 1.0625 1.875 2 4 C1.67 4.66 1.34 5.32 1 6 C-1.5625 6.625 -1.5625 6.625 -4 7 C-2.68 4.69 -1.36 2.38 0 0 Z " fill="#D6BB6F" transform="translate(570,510)"/>
<path d="M0 0 C0.99 0 1.98 0 3 0 C2.67 1.98 2.34 3.96 2 6 C1.01 6 0.02 6 -1 6 C-0.67 4.02 -0.34 2.04 0 0 Z " fill="#D9C283" transform="translate(600,449)"/>
<path d="M0 0 C0.66 0 1.32 0 2 0 C2.33 2.64 2.66 5.28 3 8 C2.01 8.495 2.01 8.495 1 9 C0.67 6.03 0.34 3.06 0 0 Z " fill="#D6BC73" transform="translate(605,187)"/>
<path d="M0 0 C2.0625 0.4375 2.0625 0.4375 4 1 C3.67 2.98 3.34 4.96 3 7 C2.34 7 1.68 7 1 7 C1 5.35 1 3.7 1 2 C0.34 1.67 -0.32 1.34 -1 1 C-0.67 0.67 -0.34 0.34 0 0 Z " fill="#CAB273" transform="translate(36,156)"/>
<path d="M0 0 C0.75 1.75 0.75 1.75 1 4 C-0.9375 6.25 -0.9375 6.25 -3 8 C-3.33 7.34 -3.66 6.68 -4 6 C-2.68 4.02 -1.36 2.04 0 0 Z " fill="#DFCFA4" transform="translate(52,123)"/>
<path d="M0 0 C2.64 0 5.28 0 8 0 C5.23776722 2.76223278 2.79293383 2.57856291 -1 3 C-0.67 2.01 -0.34 1.02 0 0 Z " fill="#DAC38C" transform="translate(185,22)"/>
<path d="M0 0 C3.62528568 -0.20140476 5.86501708 0.14223235 9 2 C8.67 2.99 8.34 3.98 8 5 C5.36 3.68 2.72 2.36 0 1 C0 0.67 0 0.34 0 0 Z " fill="#E0D29F" transform="translate(144,583)"/>
<path d="M0 0 C2 1.8125 2 1.8125 4 4 C4 4.99 4 5.98 4 7 C3.01 6.67 2.02 6.34 1 6 C-0.1875 3.4375 -0.1875 3.4375 -1 1 C-0.67 0.67 -0.34 0.34 0 0 Z " fill="#E2CF9E" transform="translate(44,481)"/>
<path d="M0 0 C0.66 0 1.32 0 2 0 C1.50168276 3.68754757 0.89932357 5.60490662 -2 8 C-2.125 5.125 -2.125 5.125 -2 2 C-1.34 1.34 -0.68 0.68 0 0 Z " fill="#D6C283" transform="translate(65,103)"/>
<path d="M0 0 C1.65 0.33 3.3 0.66 5 1 C5 1.99 5 2.98 5 4 C2.69 3.67 0.38 3.34 -2 3 C-1.34 2.67 -0.68 2.34 0 2 C0 1.34 0 0.68 0 0 Z " fill="#D7BA74" transform="translate(460,26)"/>
</svg>
